<svg width="62" height="58" viewBox="0 0 62 58" fill="none" xmlns="http://www.w3.org/2000/svg">
<path d="M60.7095 34.3356C60.9295 32.9956 61.0495 31.6356 61.0595 30.2756C61.1295 30.0356 61.1395 29.7856 61.0595 29.5456C60.9695 21.8356 57.7995 14.1256 52.3595 8.54562C43.4595 -0.584385 29.4095 -2.25439 17.9995 2.84561C5.98948 8.21561 -1.39051 21.1956 0.219486 34.2756C1.88949 47.8956 14.0295 57.8956 27.3995 56.7856C27.5995 57.0156 27.8795 57.1856 28.2395 57.2456C40.2195 59.3156 52.8295 52.7756 58.2995 41.9156C59.2995 39.9356 60.0095 37.8556 60.4695 35.7356C60.8095 35.3656 60.9495 34.8156 60.7195 34.3356H60.7095ZM47.3195 49.2856C41.5295 44.4956 35.7095 39.7256 29.9095 34.9456C36.2195 39.3456 42.5295 43.7556 48.8495 48.1556C48.3595 48.5556 47.8495 48.9256 47.3295 49.2856H47.3195ZM7.10949 42.9256C6.54949 42.0156 6.04949 41.0656 5.60949 40.0856C7.75949 42.3256 9.85949 44.6056 11.9495 46.9056C10.3095 45.6156 8.68949 44.2956 7.11949 42.9256H7.10949ZM4.10949 35.6056C5.92949 37.5556 7.78949 39.4756 9.67949 41.3456C7.86949 39.8156 6.09949 38.2356 4.36949 36.6156C4.27949 36.2856 4.18949 35.9456 4.10949 35.6056ZM6.38949 18.6156C15.6395 26.2656 24.9195 33.8956 34.1895 41.5256C24.4895 34.7256 15.7195 26.5356 5.61949 20.2756C5.85949 19.7156 6.10949 19.1556 6.38949 18.6156ZM45.0095 50.7156C44.8795 50.7856 44.7495 50.8656 44.6195 50.9356C43.6595 50.3056 42.7095 49.6756 41.7595 49.0356C42.8295 49.6256 43.9095 50.1856 45.0095 50.7156ZM4.77949 22.5056C9.04949 26.5356 13.4395 30.4256 17.9495 34.1756C13.3195 30.8456 8.81949 27.3456 4.41949 23.7056C4.52949 23.3056 4.63949 22.9056 4.76949 22.5056H4.77949ZM3.60949 32.2256C3.59949 32.0756 3.57949 31.9356 3.56949 31.7856C9.32949 36.7156 15.1095 41.6256 20.8995 46.5156C14.7095 42.3056 8.93949 37.5456 3.59949 32.2256H3.60949ZM3.64949 27.9356C3.71949 27.2656 3.81949 26.6156 3.92949 25.9656C11.4195 32.6056 18.9195 39.2256 26.4395 45.8456C18.6295 40.5156 10.9895 34.9556 3.55949 29.0956C3.57949 28.7156 3.60949 28.3256 3.64949 27.9356ZM38.1995 53.3156C33.3495 49.0356 28.4895 44.7756 23.6295 40.5256C29.5995 44.6156 35.7295 48.4856 42.0195 52.1156C40.7795 52.6056 39.4995 53.0056 38.1995 53.3156ZM50.7495 46.4556C45.3395 41.1356 39.7095 36.0756 33.9795 31.1456C40.1795 35.5756 46.3695 40.0056 52.5695 44.4356C51.9995 45.1356 51.3995 45.8156 50.7495 46.4456V46.4556ZM54.1195 42.2756C45.6595 32.9856 34.6495 26.7356 24.7295 19.1856C34.9595 25.8456 45.1795 32.5256 55.3995 39.1956C55.4995 39.2656 55.5995 39.3056 55.7095 39.3356C55.2495 40.3656 54.7195 41.3456 54.1195 42.2756ZM16.1095 9.13561C23.2495 13.9656 30.2195 19.0256 37.0495 24.2956C29.4095 19.3156 21.7695 14.3356 14.1495 9.33562C14.6295 8.96562 15.1195 8.61561 15.6195 8.28561C15.6595 8.60561 15.8095 8.92561 16.1195 9.13561H16.1095ZM56.5995 36.9956C49.1895 30.6656 41.5595 24.6156 33.7495 18.8056C35.0995 19.7356 36.4495 20.6756 37.7995 21.5856C44.2595 25.9656 50.7295 30.3356 57.1895 34.7156C57.0295 35.4956 56.8295 36.2556 56.5895 36.9956H56.5995ZM51.9095 25.8856C53.8295 27.2756 55.7495 28.6756 57.6795 30.0756C57.6795 30.4756 57.6595 30.8756 57.6395 31.2756C55.7495 29.4656 53.8395 27.6656 51.9095 25.8956V25.8856ZM54.0595 20.0356C54.6495 20.4156 55.2695 20.2556 55.6795 19.8556C56.4795 21.7756 57.0495 23.8056 57.3795 25.8856C52.9895 21.8056 48.6095 17.7256 44.2195 13.6456C47.4995 15.7756 50.7795 17.9056 54.0695 20.0356H54.0595ZM30.7895 4.90562C34.8395 8.65562 38.8895 12.4156 42.9395 16.1656C37.2995 12.0956 31.6595 8.02561 26.0195 3.96561C27.4895 3.67561 28.9895 3.50561 30.4995 3.45561C30.2895 3.92561 30.3195 4.48562 30.7795 4.90562H30.7895ZM39.1495 4.54562C39.0595 4.95562 39.1495 5.40561 39.5295 5.77561C41.0495 7.27561 42.5695 8.76562 44.0795 10.2656C40.5895 8.01562 37.0995 5.76561 33.6195 3.50561C33.7395 3.50561 33.8695 3.51561 33.9895 3.52561C35.7695 3.68561 37.4995 4.02562 39.1495 4.54562ZM23.3995 4.60561C23.4295 4.95561 23.5895 5.30561 23.9295 5.57561C32.0395 11.8156 39.8995 18.3756 47.4995 25.2256L37.4495 18.4556C31.0595 14.1456 24.7995 9.65561 17.4495 7.14561C19.3195 6.08561 21.3095 5.23562 23.3995 4.61562V4.60561ZM11.9995 11.1456C14.0395 13.3956 16.2095 15.4756 18.4995 17.4256C16.3295 15.9056 14.1695 14.3756 11.9995 12.8556C11.0395 12.1756 9.79949 13.7556 10.7295 14.5056C20.0795 22.0956 29.3495 29.8356 38.2795 37.9356C28.0295 30.8156 17.7895 23.6856 7.55949 16.5356C8.80949 14.5456 10.2995 12.7456 11.9995 11.1456ZM27.2695 54.5656C24.4095 54.5156 21.6795 53.9456 19.1295 52.9656C19.2395 52.6656 19.2095 52.3156 18.9695 52.0456C17.7195 50.6156 16.4495 49.2156 15.1595 47.8256C18.0095 50.0356 20.9395 52.1456 23.9495 54.1556C24.7495 54.6956 25.7495 53.4256 24.9895 52.8056C22.6395 50.8656 20.3395 48.8656 18.0895 46.8256C21.5995 49.3456 25.2495 51.6756 29.0195 53.8356C28.9195 53.8256 28.8095 53.8156 28.7095 53.8056C28.0395 53.7156 27.5495 54.0656 27.2695 54.5756V54.5656ZM32.4095 54.0156C32.4095 53.7756 32.3295 53.5356 32.0995 53.3356C29.7495 51.3256 27.3895 49.3156 25.0395 47.3156C28.2395 49.5456 31.4795 51.7356 34.7395 53.8956C33.9695 53.9756 33.1895 54.0156 32.4195 54.0256L32.4095 54.0156Z" fill="#328459"/>
</svg>
