<svg width="28" height="29" viewBox="0 0 28 29" fill="none" xmlns="http://www.w3.org/2000/svg">
<g clip-path="url(#clip0_12_4914)">
<path d="M11.4738 15.2188C11.2062 15.1255 10.6338 15.0757 9.744 15.0757H8.53067C8.49333 15.0757 8.46844 15.1068 8.46844 15.1379V17.633C8.46844 17.6704 8.49333 17.6953 8.53067 17.6953H9.97422C10.6773 17.6953 11.1191 17.6766 11.312 17.633C11.6044 17.577 11.8347 17.4464 12.0213 17.241C12.2018 17.0357 12.2951 16.7557 12.2951 16.4073C12.2951 16.1148 12.2267 15.8659 12.0836 15.6606C11.9404 15.4615 11.7413 15.3122 11.4738 15.2188Z" fill="white" fill-opacity="0.65"/>
<path d="M18.3556 13.265C17.9262 13.265 17.5716 13.4144 17.2916 13.7193C17.024 14.0117 16.9058 14.2917 16.8809 14.6962C16.8809 14.7335 16.912 14.7708 16.9556 14.7708H19.7493C19.7929 14.7708 19.824 14.7335 19.824 14.6962C19.824 14.329 19.6498 13.9682 19.3822 13.6944C19.096 13.4082 18.76 13.265 18.3556 13.265Z" fill="white" fill-opacity="0.65"/>
<path d="M8.53067 13.4455H9.44533C10.2044 13.4455 10.6773 13.433 10.864 13.4144C11.2 13.377 11.4613 13.2588 11.648 13.0659C11.8409 12.873 11.9342 12.6179 11.9342 12.3006C11.9342 11.9957 11.8533 11.753 11.6853 11.5602C11.5236 11.3735 11.2747 11.2553 10.9511 11.2179C10.7582 11.193 10.2044 11.1868 9.28356 11.1868H8.52444C8.48711 11.1868 8.46222 11.2179 8.46222 11.249V13.3895C8.46844 13.4144 8.49956 13.4455 8.53067 13.4455Z" fill="white" fill-opacity="0.65"/>
<path d="M14 0.447266C6.26578 0.447266 0 6.71304 0 14.4473C0 22.1815 6.26578 28.4473 14 28.4473C21.7342 28.4473 28 22.1815 28 14.4473C28 6.71304 21.7342 0.447266 14 0.447266ZM16.3582 10.1353C16.3582 9.97971 16.4889 9.84904 16.6444 9.84904H19.9547C20.1102 9.84904 20.2409 9.97971 20.2409 10.1353V10.6144C20.2409 10.7699 20.1102 10.9006 19.9547 10.9006H16.6444C16.4889 10.9006 16.3582 10.7699 16.3582 10.6144V10.1353ZM14 17.8073C13.7947 18.2304 13.5147 18.5664 13.1662 18.8153C12.8116 19.0704 12.376 19.2197 11.8596 19.2819C11.536 19.3193 10.752 19.3379 9.80622 19.3504H6.58311C6.24711 19.3504 6.22222 19.3193 6.22222 19.2882V9.60638C6.22222 9.56904 6.24711 9.54415 6.58311 9.54415H10.3787C10.8453 9.54415 11.4116 9.57527 11.7911 9.64371C12.1644 9.70593 12.5004 9.84282 12.7991 10.0482C13.0978 10.2535 13.3404 10.5273 13.5396 10.8695C13.7387 11.2117 13.8382 11.5913 13.8382 12.0144C13.8382 12.4748 13.7138 12.8979 13.4711 13.2775C13.2533 13.6197 12.9671 13.881 12.6187 14.0739C12.5689 14.0988 12.5751 14.1735 12.6249 14.1859C13.1413 14.3664 13.5458 14.6464 13.8382 15.0259C14.1556 15.4428 14.3111 15.9406 14.3111 16.5068C14.3049 16.9548 14.2053 17.3842 14 17.8073ZM21.7778 16.0526C21.7778 16.0899 21.7467 16.1273 21.7031 16.1273H16.9182C16.8747 16.1273 16.8436 16.1646 16.8436 16.2019C16.8684 16.7308 17.024 17.0606 17.3164 17.3593C17.6213 17.6766 17.9947 17.7637 18.4489 17.7637C18.8658 17.7637 19.5067 17.6393 19.6933 16.9424C19.6996 16.9113 19.7369 16.8864 19.7742 16.8926L21.5911 16.9113C21.6347 16.9175 21.6533 16.961 21.6471 17.0108C21.6222 17.6268 21 18.4482 20.4773 18.7966C19.936 19.1637 19.2516 19.3442 18.4364 19.3442C17.1422 19.3442 16.184 18.9335 15.5618 18.1122C15.0702 17.4526 14.8276 16.625 14.8276 15.6233C14.8276 14.4286 15.1511 13.489 15.792 12.8108C16.4391 12.1326 17.2542 11.7966 18.2373 11.7966C19.3449 11.7966 20.216 12.1513 20.8569 12.8606C21.4791 13.5575 21.7964 14.1424 21.7778 16.0526Z" fill="white" fill-opacity="0.65"/>
</g>
<defs>
<clipPath id="clip0_12_4914">
<rect width="28" height="28" fill="white" transform="translate(0 0.447266)"/>
</clipPath>
</defs>
</svg>
