<svg width="94" height="30" viewBox="0 0 94 30" fill="none" xmlns="http://www.w3.org/2000/svg">
<path d="M1.10613 5.91462C-0.401201 6.89767 0.956672 9.35029 2.47686 8.35506C12.3195 1.92572 24.6796 2.59027 35.7929 4.71694C41.0046 5.71367 46.2706 7.11651 50.9122 9.73321C51.0304 9.79805 51.1549 9.86925 51.2793 9.94046C48.6421 12.5065 46.9757 15.9096 47.0867 20.1171C47.209 24.68 50.4357 29.2536 55.4374 29.1805C59.5824 29.1201 62.4617 25.251 62.7143 21.4126C63.0491 16.3861 60.041 12.4838 55.8725 9.53463C58.6382 7.72516 61.9964 6.76946 65.3503 6.59863C76.5213 6.04147 86.6392 12.8752 92.0108 22.2483C92.4114 22.9484 93.4 22.3654 93.0941 21.6548C88.9546 12.0902 79.4305 5.4686 69.0195 4.36004C63.8674 3.81313 57.9645 5.08789 53.5866 8.07129C48.9839 5.39936 43.5607 3.69411 39.588 2.77386C27.0244 -0.144049 12.3977 -1.41804 1.10613 5.91462ZM59.3081 23.7192C57.3761 27.4654 52.6059 27.0201 50.6735 23.4649C49.147 20.6536 49.7647 17.1158 51.2583 14.4317C51.8873 13.2927 52.6708 12.2941 53.5588 11.4099C57.6339 14.3072 61.8117 18.8701 59.3081 23.7192Z" fill="#FF636F"/>
</svg>
