<svg width="94" height="30" viewBox="0 0 94 30" fill="none" xmlns="http://www.w3.org/2000/svg">
<path d="M1.31585 6.41828C-0.191485 7.40133 1.16639 9.85395 2.68658 8.85872C12.5292 2.42938 24.8893 3.09393 36.0026 5.2206C41.2143 6.21734 46.4803 7.62018 51.1219 10.2369C51.2402 10.3017 51.3646 10.3729 51.489 10.4441C48.8519 13.0102 47.1854 16.4132 47.2964 20.6208C47.4187 25.1837 50.6454 29.7572 55.6471 29.6842C59.7921 29.6238 62.6714 25.7547 62.924 21.9163C63.2588 16.8897 60.2507 12.9875 56.0822 10.0383C58.8479 8.22882 62.2061 7.27312 65.56 7.10229C76.731 6.54513 86.8489 13.3789 92.2205 22.752C92.6211 23.4521 93.6097 22.8691 93.3038 22.1585C89.1643 12.5939 79.6402 5.97226 69.2292 4.8637C64.0771 4.3168 58.1742 5.59156 53.7963 8.57495C49.1936 5.90303 43.7705 4.19777 39.7977 3.27752C27.2341 0.359613 12.6074 -0.914375 1.31585 6.41828ZM59.5178 24.2228C57.5858 27.969 52.8157 27.5238 50.8832 23.9686C49.3568 21.1572 49.9744 17.6195 51.468 14.9354C52.097 13.7964 52.8805 12.7978 53.7685 11.9136C57.8436 14.8109 62.0214 19.3738 59.5178 24.2228Z" fill="#328459"/>
</svg>
