<svg width="117" height="113" viewBox="0 0 117 113" fill="none" xmlns="http://www.w3.org/2000/svg">
<g id="Objects" clip-path="url(#clip0_12_6578)">
<path id="Vector" d="M115.09 61.53C115.27 61.29 115.46 61.05 115.64 60.81C116.22 60.05 115.83 59.21 115.19 58.85C115.55 58.83 115.87 58.65 115.99 58.21C118.72 48.25 110.39 37.67 102.41 32.84C99.52 31.09 86 25.09 80.68 27.58C76.1 13.25 63.13 2.27996 48.26 0.0199591C47.12 -0.150041 46.57 0.839959 46.76 1.69996C46.05 2.20996 45.36 2.77996 44.69 3.35996C36.87 -0.620041 31.67 12.76 28.37 17.48C21.4 27.46 12.55 35.6 6.32996 46.18C4.76996 48.83 3.30996 51.52 1.84996 54.22C1.19996 55.42 -0.270044 57.2 0.0599561 58.75C0.629956 61.45 5.59996 61.67 7.61996 62.14C7.95996 62.22 8.29996 62.3 8.62996 62.37C8.74996 62.51 8.87996 62.65 8.98996 62.79C9.37996 63.28 10.06 63.21 10.39 62.77C21.77 65.34 33.47 67.71 42.34 75.82C42.68 76.13 43.05 76.15 43.36 76.01C59.4 81.04 71.46 93.66 72.51 110.97C72.56 111.79 73.49 112.25 74.2 111.98C79.38 110.02 82.77 105.73 86.49 101.81C91.7299 96.29 97.02 90.82 102.32 85.35C107.24 80.27 121.66 69.81 115.1 61.51L115.09 61.53ZM93.27 91.74C93.6099 90.3 94.15 88.96 94.94 87.73C95.13 88.34 95.26 88.98 95.32 89.63C94.64 90.34 93.95 91.04 93.27 91.74ZM67.66 89.69C67.82 89.34 67.96 88.99 68.12 88.64C68.98 90.48 69.7599 92.29 70.42 94.16C69.6 92.61 68.68 91.11 67.67 89.68L67.66 89.69ZM72.83 95.63C72.18 93.47 71.36 91.38 70.44 89.3C71.86 91.22 72.99 93.27 73.9 95.44C73.53 95.3 73.12 95.35 72.83 95.64V95.63ZM67.36 85.79C67.3 85.86 67.25 85.94 67.21 86.03C67.13 86.21 67.06 86.39 66.98 86.56C66.79 85.96 66.56 85.38 66.3 84.82C66.45 84.95 66.61 85.08 66.76 85.22C66.97 85.41 67.16 85.6 67.36 85.79ZM63.81 84.58C63.88 84.42 63.95 84.27 64.02 84.11C64.4699 84.91 64.82 85.67 65.09 86.47C64.6199 85.93 64.13 85.41 63.63 84.9C63.71 84.8 63.77 84.7 63.8 84.58H63.81ZM91.31 92.13C91.3699 92.25 91.43 92.36 91.48 92.48C91.62 92.76 91.84 92.92 92.07 92.97C91.22 93.85 90.36 94.73 89.51 95.61C90.16 94.44 90.75 93.24 91.31 92.13ZM97.47 87.41C98.15 85.14 99.25 82.3 99.96 83.75C100.09 84.02 100.33 84.16 100.58 84.18L97.48 87.41H97.47ZM100.04 81.07C100.04 81.07 99.99 81.04 99.97 81.02C100.91 79.84 101.85 78.67 102.79 77.48C102.14 78.97 101.45 80.44 100.69 81.87C100.56 81.69 100.38 81.48 100.04 81.07ZM104.29 76.14C104.18 76.06 104.06 76.03 103.94 76.02C104.7 75.05 105.46 74.08 106.21 73.11C105.82 74.3 105.44 75.5 105.05 76.69C104.9 76.56 104.68 76.42 104.29 76.14ZM107.82 72.5C107.69 72.19 107.35 72.02 107.03 72.04C107.73 71.14 108.42 70.24 109.12 69.34C108.73 70.54 108.36 71.75 107.99 72.96C107.94 72.81 107.89 72.66 107.83 72.51L107.82 72.5ZM108.93 75.55C109.46 74.08 109.98 72.61 110.48 71.14C110.7 71.83 110.91 72.52 111.13 73.2C110.42 74.02 109.66 74.81 108.93 75.55ZM113.97 64.05C113.46 64.05 112.92 64.36 112.81 64.96C112.53 66.47 112.25 67.97 111.97 69.48C111.78 68.9 111.59 68.31 111.39 67.73C111.29 67.44 111.04 67.25 110.76 67.18C111.72 65.92 112.69 64.66 113.64 63.41C113.77 63.62 113.86 63.83 113.96 64.05H113.97ZM11.26 44.91C11.54 45.63 11.83 46.35 12.11 47.07C12.24 47.65 13.22 47.78 13.24 47.08C13.3 45.28 13.48 43.55 13.76 41.81C13.93 42.4 14.11 42.99 14.28 43.58C14.31 44.36 15.43 44.27 15.57 43.59C15.92 41.95 16.27 40.31 16.6 38.67C16.88 39.47 17.15 40.27 17.41 41.07C15.24 44.19 13.12 47.34 11.09 50.54C11 48.66 11.07 46.78 11.25 44.9L11.26 44.91ZM9.74996 52.71C9.51996 53.08 9.29996 53.45 9.06996 53.83C8.91996 52.82 8.86996 51.83 8.90996 50.83C9.18996 51.46 9.46996 52.09 9.74996 52.72V52.71ZM36.04 13.3C36.04 13.3 36.09 13.35 36.12 13.38C35.58 14.17 35.04 14.97 34.52 15.77C34.74 14.66 34.95 13.54 35.16 12.43C35.45 12.72 35.75 13.01 36.04 13.3ZM39.76 8.49996C39.31 9.04996 38.87 9.60996 38.44 10.18C38.7 9.41996 39.09 8.78996 39.76 8.49996ZM17.81 37.63C17.57 36.97 17.34 36.3 17.1 35.63C17 35.35 16.79 35.21 16.56 35.18C17.2 34.37 17.85 33.56 18.51 32.76C18.27 34.38 18.03 36.01 17.81 37.63ZM19.55 31.52C20.18 30.77 20.81 30.02 21.46 29.28C21.36 30.51 21.26 31.74 21.17 32.98C20.83 32.56 20.45 32.15 19.98 31.72C19.85 31.6 19.71 31.54 19.56 31.53L19.55 31.52ZM19.96 34.71C20.26 35.19 20.57 35.66 20.87 36.14C20.38 36.84 19.89 37.54 19.4 38.24C19.59 37.07 19.78 35.89 19.95 34.72L19.96 34.71ZM28.77 24.76C28.45 25.25 28.12 25.74 27.8 26.22C26.18 28.59 24.53 30.95 22.87 33.31C22.96 32.1 23.05 30.89 23.14 29.68C23.56 30.15 24.38 29.75 24.5 29.18C24.7 28.18 24.9 27.17 25.1 26.17C25.27 26.53 25.45 26.88 25.61 27.23C25.93 27.92 26.83 27.76 27 27.06C27.3 25.86 27.54 24.66 27.76 23.46C27.83 23.65 27.91 23.84 27.98 24.04C28.04 24.52 28.39 24.74 28.77 24.76ZM29.67 23.37C29.6 22.24 29.62 21.25 29.73 20.25C29.89 20.41 30.05 20.56 30.2 20.72C30.6 21.12 31.13 20.93 31.45 20.57C30.85 21.52 30.26 22.45 29.67 23.37ZM31.64 20.27C31.66 20.22 31.69 20.17 31.7 20.11C31.98 18.96 32.26 17.81 32.54 16.66C32.57 16.72 32.61 16.78 32.64 16.84C32.78 17.26 33.12 17.41 33.47 17.38C32.85 18.34 32.24 19.31 31.64 20.26V20.27ZM42.88 4.56996C43.03 4.57996 43.17 4.56996 43.33 4.59996C42.64 5.25996 41.98 5.95996 41.33 6.67996C41.47 6.27996 41.6 5.87996 41.74 5.47996C42.4 5.55996 42.8 5.07996 42.88 4.56996ZM39.01 5.74996C38.99 5.99996 38.99 6.25996 39.01 6.53996C38.63 6.59996 38.24 6.66996 37.86 6.72996C38.22 6.35996 38.61 6.03996 39.01 5.74996ZM36.88 7.84996C36.88 8.86996 36.73 9.86996 36.46 10.85C36.24 10.62 35.98 10.42 35.41 9.95996C35.87 9.21996 36.36 8.50996 36.88 7.84996ZM15.55 36.47C15.31 37.7 15.08 38.93 14.86 40.16C14.69 39.74 14.49 39.31 14.24 38.85C14.17 38.72 14.07 38.62 13.97 38.56C14.49 37.86 15.02 37.17 15.55 36.48V36.47ZM11.36 42.16C11.78 41.56 12.21 40.97 12.64 40.37C12.41 41.47 12.25 42.57 12.16 43.67C11.94 43.19 11.7 42.71 11.41 42.21C11.4 42.19 11.38 42.18 11.36 42.16ZM7.04996 49.52C6.98996 49.4 6.90996 49.31 6.81996 49.23C7.01996 48.89 7.21996 48.55 7.41996 48.22C7.30996 48.75 7.21996 49.28 7.16996 49.8C7.12996 49.71 7.08996 49.61 7.04996 49.52ZM8.28996 46.82C8.90996 45.83 9.53996 44.86 10.18 43.9C9.97996 45.69 9.88996 47.45 9.88996 49.23C9.65996 48.6 9.41996 47.96 9.19996 47.33C9.03996 46.88 8.65996 46.75 8.29996 46.83L8.28996 46.82ZM2.68996 58.25C2.82996 57.67 2.95996 57.1 3.09996 56.52L3.23996 57.06C3.23996 57.98 4.55996 57.84 4.73996 57.07C4.76996 56.97 4.78996 56.86 4.81996 56.76C4.98996 57.49 5.13996 58.23 5.24996 58.99C5.33996 59.63 5.93996 59.8 6.37996 59.61C6.47996 59.77 6.58996 59.92 6.69996 60.07C5.12996 59.76 3.47996 59.26 2.68996 58.26V58.25ZM16.9 60.77C16.22 60.3 15.52 59.85 14.87 59.33C15.8 59.47 16.72 59.66 17.63 59.89C17.55 59.94 17.47 60 17.42 60.08C17.26 60.32 17.07 60.55 16.9 60.78V60.77ZM18.07 62.39C18.17 62.26 18.27 62.12 18.38 61.99C18.7 62.21 19.01 62.45 19.33 62.68C18.91 62.58 18.49 62.49 18.07 62.4V62.39ZM22.79 63.54C22.31 63.41 21.83 63.3 21.34 63.18C21.44 63.09 21.54 62.98 21.61 62.85C21.64 62.79 21.67 62.73 21.7 62.68C22.06 62.98 22.43 63.28 22.8 63.55C22.8 63.55 22.8 63.55 22.79 63.55V63.54ZM24.38 64C24.6 63.57 24.52 62.84 25.99 64.48C25.46 64.31 24.92 64.15 24.38 64ZM28.31 65.25C28.48 65.05 28.57 64.8 28.53 64.53C30.14 65.41 31.74 66.32 33.31 67.28C31.68 66.52 30.01 65.85 28.31 65.24V65.25ZM46.33 74.71C42.73 68.6 34.6 64.66 28.39 61.54C22.37 58.51 15.86 56.71 9.08996 57.51C8.03996 57.63 8.23996 59.22 9.27996 59.13C10.65 59.02 11.99 59.03 13.3 59.15C13.16 59.29 13.06 59.46 13.01 59.65C12.94 59.95 12.86 60.21 12.79 60.48C12.02 60.07 11.21 59.74 10.41 59.32C9.85996 59.03 9.25996 59.51 9.15996 60.04C9.13996 60.13 9.12996 60.22 9.10996 60.32C8.39996 59.48 7.67996 58.65 6.86996 57.95C6.86996 57.95 6.85996 57.94 6.84996 57.93C6.79996 56.51 6.79996 55.09 6.84996 53.67C7.20996 54.6 7.53996 55.54 7.84996 56.51C7.96996 56.9 8.24996 57.05 8.54996 57.06C9.00996 57.41 9.66996 57.44 10.16 56.8C17.08 47.89 23.04 38.06 29.38 28.73C34.58 21.08 39.24 12.38 45.24 5.19996C45.33 5.23996 45.42 5.27996 45.52 5.31996C46.13 5.61996 46.65 4.69996 46.12 4.29996C46.1 4.27996 46.07 4.26996 46.05 4.24996C46.51 3.71996 46.98 3.18996 47.46 2.67996C47.58 2.73996 47.7 2.78996 47.85 2.82996C62.15 6.03996 73.33 15.24 79.41 28.51C79.02 28.95 78.74 29.5 78.6 30.17C78.07 29.79 77.33 29.74 76.91 30.44C67.66 45.78 56.73 60.19 46.32 74.76C46.32 74.75 46.32 74.74 46.31 74.73L46.33 74.71ZM78.99 32.04C79.06 31.94 79.11 31.83 79.16 31.73C79.42 31.68 79.67 31.51 79.74 31.23C80.75 27.18 92.41 31.35 94.33 32.05C98.16 33.45 101.87 35.37 104.96 38.06C111.35 43.64 112.79 49.97 113.95 57.93C114 58.26 114.22 58.51 114.5 58.68C114.16 58.68 113.83 58.83 113.55 59.18C102.21 73.32 89.94 87.02 79.07 101.55C76.69 86.8 62.67 75.48 47.86 75.22C58.93 61.3 68.64 46.49 79 32.04H78.99ZM62.98 82.29C62.87 82.47 62.78 82.63 62.71 82.76C61.93 81.87 61.08 81.27 59.82 80.66C59.54 80.52 59.21 80.66 59.04 80.91C57.97 80.12 56.86 79.38 55.71 78.72C58.27 79.61 60.7 80.79 62.98 82.29ZM74.87 109.12C74.66 106.4 74.11 103.69 73.28 101.05C73.63 100.91 73.9 100.59 73.87 100.09V100.01C74.81 102.69 75.54 105.3 77.08 107.9C76.37 108.37 75.63 108.78 74.86 109.11L74.87 109.12ZM101.55 83.15C102.29 81.57 104.14 77.69 104.74 78.53C105.03 78.95 105.76 78.88 105.93 78.39C106.28 77.38 106.64 76.38 106.99 75.37C107.02 75.68 107.03 76 107.01 76.32C107.02 76.65 107.24 76.87 107.51 76.96C107.28 77.19 107.05 77.42 106.84 77.64L101.54 83.15H101.55Z" fill="#ffffff8c"/>
<path id="Vector_2" d="M71.77 27.62C68.65 17.33 57.12 11.79 47.98 7.97C47.13 7.62 46.6 8.9 47.43 9.28C57.2 13.82 64.86 18.97 70.21 28.48C70.74 29.42 72.04 28.52 71.77 27.62Z" fill="#ffffff8c"/>
<path id="Vector_3" d="M67.6499 34.7001C64.2899 24.9901 54.4999 18.01 45.1399 14.83C44.4099 14.58 43.9299 15.67 44.6699 15.95C54.7999 19.84 60.4799 26.76 66.4099 35.39C66.8799 36.07 67.8999 35.45 67.6499 34.71V34.7001Z" fill="#ffffff8c"/>
<path id="Vector_4" d="M62.6401 41.2601C60.8601 31.5301 48.8701 25.3201 40.9801 21.1701C40.2701 20.8001 39.5601 21.9801 40.2601 22.4001C44.2701 24.8401 48.3101 27.2401 51.9601 30.2201C56.1301 33.6201 58.2901 37.5201 61.3401 41.7801C61.7501 42.3501 62.7801 41.9901 62.6501 41.2601H62.6401Z" fill="#ffffff8c"/>
<path id="Vector_5" d="M58.26 47.9699C53.92 38.9199 43.84 32.8899 34.46 30.4099C33.76 30.2299 33.43 31.4199 34.12 31.6399C44.27 34.8699 50.16 40.8599 56.79 48.7799C57.37 49.4699 58.69 48.8799 58.25 47.9699H58.26Z" fill="#ffffff8c"/>
<path id="Vector_6" d="M51.26 57.91C48.22 49.74 38.54 42.74 30.08 41.4C29.44 41.3 29.19 42.24 29.78 42.49C33.89 44.23 37.88 45.82 41.37 48.69C44.89 51.58 47.11 55.15 49.87 58.68C50.43 59.39 51.58 58.77 51.26 57.91Z" fill="#ffffff8c"/>
<path id="Vector_7" d="M49.42 66.1299C43.62 57.8899 34.0901 52.4399 24.5901 49.6499C23.9001 49.4499 23.4401 50.4599 24.1501 50.6999C34.0301 54.0499 41.1401 59.8699 48.3001 67.2199C48.9401 67.8799 49.9201 66.8299 49.4301 66.1299H49.42Z" fill="#ffffff8c"/>
<path id="Vector_8" d="M79.75 85.76C81.59 82.4 77.49 79.19 75.23 77.2C70.29 72.85 64.34 69.49 58 67.74C57.15 67.51 56.57 68.7 57.45 69.05C64.41 71.83 76.92 77.15 78.31 85.56C78.44 86.35 79.4 86.41 79.76 85.76H79.75Z" fill="#ffffff8c"/>
<path id="Vector_9" d="M85.6 78.96C82.4 70.13 71.53 62.87 62.43 61.85C62.05 61.81 61.88 62.36 62.25 62.51C66.77 64.26 71.05 65.97 74.92 68.99C78.85 72.05 81.2 75.92 84.25 79.71C84.8 80.39 85.9 79.81 85.59 78.97L85.6 78.96Z" fill="#ffffff8c"/>
<path id="Vector_10" d="M90.18 71.97C91.32 68.68 86.25 64.97 84.11 63C79.33 58.59 73.76 55.34 67.71 53.02C66.77 52.66 66.17 54.09 67.1 54.46C71.34 56.17 75.36 58.3 79 61.08C80.47 62.2 89.06 70.94 88.72 71.12C88.14 71.43 88.22 72.19 88.87 72.35C89.02 72.39 89.17 72.42 89.32 72.46C89.65 72.54 90.07 72.28 90.18 71.97Z" fill="#ffffff8c"/>
<path id="Vector_11" d="M96.3 66.03C92.32 57.03 82.4 50.8 73.34 48.02C72.48 47.76 71.91 49.03 72.79 49.33C82.81 52.74 88.4 58.91 94.92 66.79C95.47 67.46 96.69 66.89 96.31 66.02L96.3 66.03Z" fill="#ffffff8c"/>
<path id="Vector_12" d="M103.28 56.4399C99.4299 46.2899 86.9799 40.2599 76.8199 39.3299C76.0099 39.2599 75.8299 40.4699 76.6499 40.5799C82.0799 41.3699 87.2099 43.2699 91.7099 46.4399C95.9599 49.4299 98.5299 53.3799 101.82 57.2499C102.42 57.9599 103.64 57.3699 103.28 56.4399Z" fill="#ffffff8c"/>
<path id="Vector_13" d="M106 50.58C102.38 42.06 94.53 35.86 85.87 33.03C85.07 32.77 84.54 33.95 85.35 34.26C94.1 37.66 99.75 43.5 104.41 51.46C104.94 52.36 106.4 51.52 106 50.58Z" fill="#ffffff8c"/>
</g>
<defs>
<clipPath id="clip0_12_6578">
<rect width="116.77" height="112.07" fill="white"/>
</clipPath>
</defs>
</svg>
