<svg width="25" height="25" viewBox="0 0 25 25" fill="none" xmlns="http://www.w3.org/2000/svg">
<g clip-path="url(#clip0_214_358)">
<path d="M12.5 24.5C19.1274 24.5 24.5 19.1274 24.5 12.5C24.5 5.87258 19.1274 0.5 12.5 0.5C5.87258 0.5 0.5 5.87258 0.5 12.5C0.5 19.1274 5.87258 24.5 12.5 24.5Z" fill="#D80027"/>
<path d="M7.06719 7.80273L8.10312 10.9902H11.4547L8.74531 12.9637L9.78125 16.1512L7.06719 14.1824L4.35313 16.1512L5.39375 12.9637L2.67969 10.9902H6.03125L7.06719 7.80273Z" fill="#FFDA44"/>
<path d="M14.7266 19.0857L13.9344 18.1107L12.7625 18.5654L13.4422 17.5107L12.65 16.5311L13.8641 16.8545L14.5485 15.7998L14.6141 17.0561L15.8328 17.3795L14.6563 17.8295L14.7266 19.0857Z" fill="#FFDA44"/>
<path d="M16.3016 16.2264L16.6766 15.0264L15.65 14.2998L16.9063 14.2811L17.2766 13.0811L17.6844 14.2717L18.9406 14.2576L17.9328 15.0076L18.336 16.1982L17.3094 15.4717L16.3016 16.2264Z" fill="#FFDA44"/>
<path d="M18.425 9.30771L17.8719 10.4374L18.7719 11.314L17.5297 11.1358L16.9765 12.2608L16.7609 11.0233L15.514 10.8452L16.6297 10.2593L16.414 9.01709L17.314 9.89365L18.425 9.30771Z" fill="#FFDA44"/>
<path d="M14.7594 5.88574L14.6657 7.13731L15.8329 7.61074L14.6094 7.91074L14.5204 9.16699L13.8594 8.09824L12.636 8.39824L13.4469 7.4373L12.7813 6.37324L13.9485 6.84668L14.7594 5.88574Z" fill="#FFDA44"/>
</g>
<defs>
<clipPath id="clip0_214_358">
<rect width="24" height="24" fill="white" transform="translate(0.5 0.5)"/>
</clipPath>
</defs>
</svg>
