<svg width="25" height="25" viewBox="0 0 25 25" fill="none" xmlns="http://www.w3.org/2000/svg">
<g clip-path="url(#clip0_8_3676)">
<path d="M12.5 24.5C19.1274 24.5 24.5 19.1274 24.5 12.5C24.5 5.87258 19.1274 0.5 12.5 0.5C5.87258 0.5 0.5 5.87258 0.5 12.5C0.5 19.1274 5.87258 24.5 12.5 24.5Z" fill="#F0F0F0"/>
<path d="M2.98063 5.19434C2.03802 6.42073 1.32725 7.83424 0.913391 9.36982H7.15611L2.98063 5.19434Z" fill="#0052B4"/>
<path d="M24.0866 9.36977C23.6728 7.83424 22.9619 6.42073 22.0194 5.19434L17.844 9.36977H24.0866Z" fill="#0052B4"/>
<path d="M0.913391 15.6309C1.3273 17.1664 2.03806 18.5799 2.98063 19.8063L7.15597 15.6309H0.913391Z" fill="#0052B4"/>
<path d="M19.8059 2.98086C18.5795 2.03825 17.166 1.32748 15.6304 0.913574V7.15625L19.8059 2.98086Z" fill="#0052B4"/>
<path d="M5.19415 22.0196C6.42054 22.9622 7.83406 23.673 9.36959 24.0869V17.8442L5.19415 22.0196Z" fill="#0052B4"/>
<path d="M9.36954 0.913574C7.83401 1.32748 6.4205 2.03825 5.19415 2.98081L9.36954 7.1562V0.913574Z" fill="#0052B4"/>
<path d="M15.6304 24.0869C17.166 23.673 18.5795 22.9622 19.8058 22.0196L15.6304 17.8442V24.0869Z" fill="#0052B4"/>
<path d="M17.844 15.6309L22.0194 19.8063C22.9619 18.58 23.6728 17.1664 24.0866 15.6309H17.844Z" fill="#0052B4"/>
<path d="M24.3984 10.9348H14.0653H14.0653V0.601578C13.5529 0.534875 13.0305 0.5 12.5 0.5C11.9694 0.5 11.4471 0.534875 10.9348 0.601578V10.9347V10.9347H0.601578C0.534875 11.4471 0.5 11.9695 0.5 12.5C0.5 13.0306 0.534875 13.5529 0.601578 14.0652H10.9347H10.9347V24.3984C11.4471 24.4651 11.9694 24.5 12.5 24.5C13.0305 24.5 13.5529 24.4652 14.0652 24.3984V14.0653V14.0653H24.3984C24.4651 13.5529 24.5 13.0306 24.5 12.5C24.5 11.9695 24.4651 11.4471 24.3984 10.9348Z" fill="#D80027"/>
<path d="M15.6304 15.6304L20.9852 20.9852C21.2315 20.739 21.4665 20.4817 21.6906 20.2148L17.1062 15.6304H15.6304V15.6304Z" fill="#D80027"/>
<path d="M9.36957 15.6304H9.36947L4.01471 20.9851C4.2609 21.2314 4.51829 21.4664 4.7851 21.6905L9.36957 17.1059V15.6304Z" fill="#D80027"/>
<path d="M9.36957 9.3696V9.36951L4.01476 4.01465C3.76848 4.26084 3.53354 4.51823 3.30939 4.78504L7.8939 9.36955L9.36957 9.3696Z" fill="#D80027"/>
<path d="M15.6304 9.3698L20.9853 4.0149C20.7391 3.76862 20.4817 3.53368 20.2149 3.30957L15.6304 7.89409V9.3698Z" fill="#D80027"/>
</g>
<defs>
<clipPath id="clip0_8_3676">
<rect width="24" height="24" fill="white" transform="translate(0.5 0.5)"/>
</clipPath>
</defs>
</svg>
