<svg width="1366.9329" height="1369.9995" xmlns="http://www.w3.org/2000/svg">

 <g>
  <title>Layer 1</title>
  <path id="svg_1" fill="#1877f2" d="m1365.333,682.667c0,-377.027 -305.64,-682.667 -682.666,-682.667c-377.027,0 -682.667,305.64 -682.667,682.667c0,340.738 249.641,623.16 576,674.373l0,-477.04l-173.333,0l0,-197.333l173.333,0l0,-150.4c0,-171.094 101.917,-265.6 257.853,-265.6c74.69,0 152.814,13.333 152.814,13.333l0,168l-86.083,0c-84.804,0 -111.25,52.623 -111.25,106.61l0,128.057l189.333,0l-30.267,197.333l-159.067,0l0,477.04c326.359,-51.213 576,-333.635 576,-674.373"/>
  <path id="svg_2" fill="#fff" d="m948.4,880l30.267,-197.333l-189.334,0l0,-128.058c0,-53.986 26.447,-106.609 111.251,-106.609l86.083,0l0,-168s-78.124,-13.333 -152.814,-13.333c-155.936,0 -257.853,94.506 -257.853,265.6l0,150.4l-173.333,0l0,197.333l173.333,0l0,477.04a687.805,687.805 0 0 0 106.667,8.293c36.288,0 71.91,-2.84 106.666,-8.293l0,-477.04l159.067,0"/>
 </g>
</svg>