<svg width="28" height="29" viewBox="0 0 28 29" fill="none" xmlns="http://www.w3.org/2000/svg">
<g clip-path="url(#clip0_12_4916)">
<path d="M14 0.447266C11.2311 0.447266 8.52431 1.26835 6.22202 2.80669C3.91973 4.34503 2.12532 6.53153 1.06569 9.0897C0.00606595 11.6479 -0.271181 14.4628 0.269012 17.1785C0.809206 19.8943 2.14258 22.3888 4.10051 24.3468C6.05845 26.3047 8.55301 27.6381 11.2687 28.1783C13.9845 28.7185 16.7994 28.4412 19.3576 27.3816C21.9157 26.322 24.1022 24.5275 25.6406 22.2253C27.1789 19.923 28 17.2162 28 14.4473C28 10.7342 26.525 7.17328 23.8995 4.54777C21.274 1.92226 17.713 0.447266 14 0.447266ZM17.9826 9.55832C17.9826 9.82174 17.8721 9.92674 17.6142 9.92674C17.1187 9.92674 16.6232 9.92674 16.1295 9.947C15.6358 9.96727 15.3668 10.192 15.3668 10.7078C15.3558 11.2604 15.3668 11.802 15.3668 12.3657H17.4871C17.7892 12.3657 17.8924 12.4688 17.8924 12.7728C17.8924 13.5096 17.8924 14.2502 17.8924 14.9944C17.8924 15.2946 17.7966 15.3886 17.4926 15.3904H15.3484V21.3846C15.3484 21.7052 15.249 21.8065 14.9321 21.8065H12.6258C12.3476 21.8065 12.239 21.6978 12.239 21.4196V15.3996H10.4079C10.1205 15.3996 10.0174 15.2946 10.0174 15.0054C10.0174 14.26 10.0174 13.5152 10.0174 12.771C10.0174 12.4836 10.1261 12.3749 10.4097 12.3749H12.239V10.7631C12.2172 10.039 12.391 9.32253 12.7418 8.68885C13.1066 8.0491 13.6911 7.56343 14.3868 7.322C14.8384 7.15772 15.3156 7.07537 15.7961 7.07885H17.6068C17.8666 7.07885 17.9753 7.19306 17.9753 7.44727C17.9845 8.15648 17.9845 8.85832 17.9826 9.55832Z" fill="white" fill-opacity="0.65"/>
</g>
<defs>
<clipPath id="clip0_12_4916">
<rect width="28" height="28" fill="white" transform="translate(0 0.447266)"/>
</clipPath>
</defs>
</svg>
