<svg width="25" height="25" viewBox="0 0 25 25" fill="none" xmlns="http://www.w3.org/2000/svg">
<g clip-path="url(#clip0_214_307)">
<path d="M1.2464 16.6738C2.94191 21.2434 7.34043 24.4999 12.5 24.4999C17.6596 24.4999 22.0581 21.2434 23.7536 16.6738L12.5 15.6304L1.2464 16.6738Z" fill="#FFDA44"/>
<path d="M12.5 0.5C7.34043 0.5 2.94191 3.7565 1.2464 8.32611L12.5 9.36955L23.7536 8.32606C22.0581 3.7565 17.6596 0.5 12.5 0.5Z" fill="black"/>
<path d="M1.24639 8.32617C0.764047 9.62616 0.5 11.0322 0.5 12.5001C0.5 13.9679 0.764047 15.374 1.24639 16.674H23.7537C24.236 15.374 24.5 13.9679 24.5 12.5001C24.5 11.0322 24.236 9.62616 23.7536 8.32617H1.24639Z" fill="#D80027"/>
</g>
<defs>
<clipPath id="clip0_214_307">
<rect width="24" height="24" fill="white" transform="translate(0.5 0.5)"/>
</clipPath>
</defs>
</svg>
