<svg width="25" height="25" viewBox="0 0 25 25" fill="none" xmlns="http://www.w3.org/2000/svg">
<g clip-path="url(#clip0_214_765)">
<path d="M12.5 24.5C19.1274 24.5 24.5 19.1274 24.5 12.5C24.5 5.87258 19.1274 0.5 12.5 0.5C5.87258 0.5 0.5 5.87258 0.5 12.5C0.5 19.1274 5.87258 24.5 12.5 24.5Z" fill="#F0F0F0"/>
<path d="M16.6738 12.5001C16.6738 13.5435 14.8051 16.1522 12.4999 16.1522C10.1948 16.1522 8.32605 13.5435 8.32605 12.5001C8.32605 10.1948 10.1948 8.32617 12.4999 8.32617C14.8051 8.32617 16.6738 10.1948 16.6738 12.5001Z" fill="#D80027"/>
<path d="M16.6738 12.5C16.6738 14.8052 14.8051 16.6739 12.4999 16.6739C10.1948 16.6739 8.32605 14.8052 8.32605 12.5" fill="#0052B4"/>
<path d="M16.9238 16.1895L18.0304 15.0829L18.7682 15.8206L17.6616 16.9272L16.9238 16.1895Z" fill="black"/>
<path d="M15.079 18.0337L16.1856 16.9271L16.9233 17.6648L15.8167 18.7714L15.079 18.0337Z" fill="black"/>
<path d="M19.1372 18.4023L20.2438 17.2957L20.9815 18.0335L19.875 19.1401L19.1372 18.4023Z" fill="black"/>
<path d="M17.2924 20.2471L18.399 19.1405L19.1367 19.8782L18.0301 20.9848L17.2924 20.2471Z" fill="black"/>
<path d="M18.0304 17.2959L19.137 16.1893L19.8747 16.927L18.7681 18.0336L18.0304 17.2959Z" fill="black"/>
<path d="M16.186 19.1406L17.2926 18.034L18.0304 18.7718L16.9238 19.8784L16.186 19.1406Z" fill="black"/>
<path d="M19.1421 8.8125L16.1911 5.86156L16.9289 5.12382L19.8798 8.07476L19.1421 8.8125Z" fill="black"/>
<path d="M16.1906 8.0752L15.084 6.9686L15.8217 6.23089L16.9283 7.33748L16.1906 8.0752Z" fill="black"/>
<path d="M18.0349 9.91992L16.9283 8.81332L17.666 8.07561L18.7726 9.18221L18.0349 9.91992Z" fill="black"/>
<path d="M18.4036 5.86133L17.297 4.75473L18.0347 4.01699L19.1413 5.12358L18.4036 5.86133Z" fill="black"/>
<path d="M20.2489 7.70654L19.1423 6.59994L19.88 5.8622L20.9866 6.9688L20.2489 7.70654Z" fill="black"/>
<path d="M4.75415 17.2939L7.70509 20.2449L6.96735 20.9826L4.01641 18.0317L4.75415 17.2939Z" fill="black"/>
<path d="M7.70496 18.0312L8.81155 19.1378L8.07384 19.8756L6.96725 18.769L7.70496 18.0312Z" fill="black"/>
<path d="M5.86035 16.187L6.96695 17.2936L6.22921 18.0314L5.12261 16.9248L5.86035 16.187Z" fill="black"/>
<path d="M6.96716 15.0801L9.9181 18.031L9.18036 18.7688L6.22942 15.8178L6.96716 15.0801Z" fill="black"/>
<path d="M7.70471 4.75244L4.75377 7.70338L4.01603 6.96564L6.96697 4.0147L7.70471 4.75244Z" fill="black"/>
<path d="M8.8114 5.85938L5.86046 8.81032L5.12272 8.07257L8.07366 5.12163L8.8114 5.85938Z" fill="black"/>
<path d="M9.91895 6.96631L6.968 9.91725L6.23029 9.17954L9.18123 6.2286L9.91895 6.96631Z" fill="black"/>
</g>
<defs>
<clipPath id="clip0_214_765">
<rect width="24" height="24" fill="white" transform="translate(0.5 0.5)"/>
</clipPath>
</defs>
</svg>
