<svg width="28" height="29" viewBox="0 0 28 29" fill="none" xmlns="http://www.w3.org/2000/svg">
<g clip-path="url(#clip0_12_4918)">
<path d="M15.1822 13.0122V13.0414H15.1634C15.1661 13.0363 15.1697 13.0312 15.1732 13.026C15.1764 13.0215 15.1796 13.0169 15.1822 13.0122Z" fill="white" fill-opacity="0.65"/>
<path fill-rule="evenodd" clip-rule="evenodd" d="M28 14.4473C28 22.1793 21.732 28.4473 14 28.4473C6.26801 28.4473 0 22.1793 0 14.4473C0 6.71528 6.26801 0.447266 14 0.447266C21.732 0.447266 28 6.71528 28 14.4473ZM21 20.6697V15.5533C21 12.8135 19.6018 11.5384 17.7369 11.5384C16.2308 11.5384 15.559 12.4056 15.1822 13.0122V11.7479H12.3473C12.3853 12.5848 12.3473 20.6694 12.3473 20.6694H15.182V15.6867C15.182 15.4193 15.2013 15.1545 15.2759 14.9638C15.4814 14.4302 15.9466 13.8791 16.7299 13.8791C17.7562 13.8791 18.1654 14.6976 18.1654 15.8962V20.6697H21ZM7.77778 8.98866C7.77778 8.11352 8.41217 7.44743 9.38183 7.44743C10.3517 7.44743 10.9476 8.11352 10.9664 8.98866C10.9664 9.84522 10.3517 10.5306 9.36302 10.5306H9.34462C8.39378 10.5306 7.77778 9.84522 7.77778 8.98866ZM10.78 20.6697H7.94626V11.7479H10.78V20.6697Z" fill="white" fill-opacity="0.65"/>
</g>
<defs>
<clipPath id="clip0_12_4918">
<rect width="28" height="28" fill="white" transform="translate(0 0.447266)"/>
</clipPath>
</defs>
</svg>
