<svg width="201" height="62" viewBox="0 0 201 62" fill="none" xmlns="http://www.w3.org/2000/svg">
<path d="M70.217 22.1201L49.0885 31.1754C45.2049 32.8393 42.6866 36.6587 42.6866 40.8828V61.4475L48.104 53.3206C49.3584 51.4382 51.1347 49.9622 53.213 49.0708L65.1786 43.9424C68.2335 42.6335 70.2138 39.63 70.2138 36.3053V22.1201H70.217Z" fill="white"/>
<path d="M12.0981 22.1201L33.2266 31.1754C37.1102 32.8393 39.6285 36.6587 39.6285 40.8828V61.4475L34.2111 53.3206C32.9567 51.4382 31.1804 49.9622 29.1021 49.0708L17.1365 43.9424C14.0816 42.6335 12.1013 39.63 12.1013 36.3053V22.1201H12.0981Z" fill="white"/>
<path d="M44.5979 0.623977C42.5196 -0.207992 40.2003 -0.207992 38.1188 0.623977L2.02933 15.0598V29.6883L0.72998 30.9876C-0.243327 31.9609 -0.243327 33.5381 0.72998 34.5115L2.98497 36.7664L5.24157 34.5115C6.21327 33.5381 6.21327 31.9609 5.24157 30.9876L3.94061 29.6883V15.8259L5.68967 16.5245L38.1188 29.4939C40.2003 30.3259 42.5196 30.3259 44.5979 29.4939L80.6873 15.0582L44.5979 0.623977ZM51.7226 15.9833L38.2457 22.3644C37.2676 22.827 36.1368 22.1138 36.1368 21.0313V8.26749C36.1368 7.18497 37.2659 6.47025 38.2457 6.93441L51.7226 13.3155C52.8501 13.8471 52.8501 15.4484 51.7226 15.9833Z" fill="white"/>
<path d="M121.351 39.5661C120.774 40.2535 120.122 40.8622 119.393 41.3907C117.97 42.4218 116.362 43.1799 114.567 43.6649C112.773 44.15 110.905 44.3925 108.965 44.3925C107.024 44.3925 105.173 44.1516 103.377 43.6649C101.581 43.1799 99.9736 42.4218 98.5506 41.3907C97.1292 40.3595 96.0001 39.0297 95.1649 37.4011C94.3281 35.7741 93.9089 33.8226 93.9089 31.5468V16.4766H97.1549C98.9843 16.4766 100.467 17.959 100.467 19.7884V31.5452C100.467 32.928 100.862 34.0844 101.654 35.016C102.445 35.9475 103.491 36.6494 104.789 37.1248C106.088 37.597 107.481 37.8347 108.963 37.8347C110.446 37.8347 111.852 37.605 113.152 37.1489C114.45 36.6912 115.495 35.9989 116.287 35.0738C117.079 34.1487 117.474 32.9714 117.474 31.5452V29.6772H117.488C117.551 27.0946 118.245 24.7738 119.571 22.7131C120.495 21.2821 121.656 20.0502 123.055 19.0239C123.323 18.8231 123.601 18.6336 123.889 18.4505V30.0723C123.889 30.3309 123.898 30.5847 123.919 30.8304C124.094 37.2967 121.348 39.5629 121.348 39.5629L121.351 39.5661Z" fill="white"/>
<path d="M133.824 38.1203C134.939 38.1203 136.087 37.9356 137.268 37.5614C136.715 38.4528 136.195 39.2382 135.71 39.9304C133.431 43.1635 129.121 44.299 125.569 42.558C125.549 42.5484 125.532 42.5387 125.512 42.5291C123.9 41.7309 122.512 40.7431 121.351 39.5674C121.351 39.5674 124.096 37.3012 123.922 30.835C123.945 31.1225 123.983 31.4019 124.033 31.675C124.223 32.6916 124.607 33.6023 125.178 34.4022C126.036 35.6003 127.213 36.5206 128.707 37.1631C130.202 37.8039 131.91 38.1235 133.826 38.1235L133.824 38.1203Z" fill="white"/>
<path d="M201 20.948V43.6569H197.86C195.973 43.6569 194.444 42.1263 194.444 40.2391V28.553L187.619 40.7129H181.314L174.489 28.553V43.6569H167.66C165.346 43.6569 163.232 42.3383 162.215 40.2567L161 37.7705L158.173 31.9499L154.142 23.635L150.094 31.9499H155.595L158.15 37.7705H147.267C147.267 37.7705 147.261 37.7849 147.248 37.8122C147.222 37.8749 147.163 38.0034 147.068 38.1832C147.063 38.1881 147.059 38.1977 147.055 38.2057C146.451 39.3156 144.453 42.274 139.73 43.6569C138.193 44.1098 136.368 44.3925 134.21 44.3925C134.21 44.3925 137.252 43.0867 142.166 34.1182L149.571 19.2985C150.435 17.5703 152.201 16.4782 154.133 16.4782C156.066 16.4782 157.831 17.5687 158.696 19.2969L167.933 37.7576V20.948C167.933 19.7129 168.434 18.595 169.242 17.7872C170.05 16.9793 171.168 16.4766 172.403 16.4766C174.057 16.4766 175.577 17.3904 176.351 18.852L184.459 34.123L192.581 18.8488C193.356 17.3888 194.874 16.4766 196.527 16.4766H196.53C198.999 16.4766 201 18.4794 201 20.948Z" fill="white"/>
<path d="M123.921 30.8333C123.9 30.5875 123.89 30.3338 123.89 30.0752C123.905 30.3338 123.916 30.5875 123.921 30.8333Z" fill="black"/>
<path d="M144.961 19.8203L142.113 25.7276C141.821 25.4593 141.495 25.1638 141.219 24.9181C141.214 24.9133 141.209 24.9084 141.204 24.9052C141.036 24.7382 140.859 24.5792 140.677 24.4266C140.035 23.887 139.319 23.4228 138.525 23.0405C137.11 22.3547 135.543 22.0126 133.827 22.0126C131.91 22.0126 130.204 22.3322 128.707 22.9763C128.124 23.2252 127.589 23.5208 127.103 23.8548C126.785 24.0733 126.487 24.311 126.211 24.5679V17.22C126.503 17.0931 126.799 16.9742 127.103 16.865C129.154 16.1149 131.433 15.7407 133.945 15.7407C136.095 15.7407 138.318 16.2226 140.61 17.1814C142.284 17.8817 143.734 18.7634 144.963 19.8219L144.961 19.8203Z" fill="white"/>
<path d="M145.835 20.5818L142.953 26.5067C142.953 26.5067 142.571 26.1486 142.112 25.7278C141.819 25.4595 141.493 25.164 141.217 24.9183C141.212 24.9135 141.207 24.9086 141.203 24.9054C141.034 24.7384 140.857 24.5794 140.676 24.4268C140.34 23.7844 141.877 20.7905 141.877 20.7905L144.959 19.8188L145.833 20.5818H145.835Z" fill="white"/>
</svg>
