<svg width="60" height="128" viewBox="0 0 60 128" fill="none" xmlns="http://www.w3.org/2000/svg">
<path d="M32.3247 119.182C32.1847 119.072 35.0447 111.352 35.3447 110.402C36.4647 106.932 37.5947 103.462 38.7147 99.9821C40.9647 93.0421 43.2047 86.0921 45.4547 79.1521C49.9447 65.2621 54.4447 51.3821 58.9047 37.4821C58.9247 37.4221 58.9347 37.3621 58.9447 37.3021C59.2147 37.1121 59.4047 36.8121 59.4147 36.3721C59.6347 28.0821 59.2347 19.7421 58.5547 11.4821C58.2947 8.34212 59.2747 0.982125 55.0247 0.072125C53.2947 -0.297875 51.7447 0.832125 50.4147 1.72212C47.0747 3.94212 43.9947 7.00212 41.1247 9.78212C35.9747 14.7721 31.3747 20.2021 27.1847 26.0021C26.7647 26.5821 27.0647 27.1321 27.5547 27.3521C27.3547 27.4321 27.1847 27.5921 27.0747 27.8421C21.5247 40.4821 17.2647 53.7921 12.7647 66.8421C10.6147 73.0721 8.49473 79.3221 6.41473 85.5721C4.30473 91.9121 1.66473 98.3521 0.384727 104.912C-1.23527 113.212 2.30472 121.822 10.1747 125.552C17.3747 128.962 26.0547 126.722 31.0747 120.742C31.3347 120.822 31.6247 120.812 31.8947 120.702C32.0147 120.652 32.1347 120.612 32.2547 120.562C32.8847 120.312 32.7447 119.512 32.3347 119.162L32.3247 119.182ZM55.5047 5.01213C56.0247 5.93213 55.8547 8.65212 55.9447 9.62212C56.0847 11.2421 56.2047 12.8621 56.3247 14.4921C56.1447 14.4321 55.9547 14.4121 55.7147 14.4921C55.5847 14.5421 55.4647 14.5821 55.3347 14.6321C55.3347 12.6421 55.1347 10.6821 54.7347 8.76213C55.2047 8.80212 55.7247 8.43213 55.5447 7.89212C55.0447 6.41212 54.1847 5.06213 53.3847 3.71213C53.5147 3.76213 53.6347 3.79212 53.7747 3.86212C55.1247 3.48212 55.6947 3.86212 55.5047 5.00212V5.01213ZM51.3647 4.30212C52.0347 6.18213 52.5147 8.09212 52.8247 10.0321C51.9147 8.42212 50.9547 6.83212 49.9047 5.28212C50.3947 4.88212 50.8847 4.55212 51.3647 4.30212ZM48.5847 9.98212C48.2547 9.18212 47.9547 8.36213 47.7447 7.51213C47.7347 7.47213 47.7047 7.44212 47.6847 7.40212C47.8147 7.26213 47.9547 7.12212 48.0947 6.98212C48.2547 7.98212 48.4247 8.98212 48.5847 9.98212ZM45.5947 9.53212C45.7847 9.36212 45.9847 9.16212 46.1847 8.96212C46.4147 10.0221 46.5547 11.0721 46.6447 12.1321C46.0447 11.5021 45.4047 10.9021 44.7047 10.3721C45.0047 10.0921 45.2947 9.80212 45.5947 9.53212ZM43.1647 11.8321C43.4347 12.4021 43.9547 12.8121 44.7247 12.9921C44.9647 13.0521 45.1847 12.8621 45.2347 12.6521C45.8347 13.2521 46.3947 13.9021 46.8847 14.6321C47.1947 15.0921 48.1247 15.2421 48.2647 14.5221C48.3247 14.2021 48.3647 13.8821 48.4047 13.5721C48.8247 14.2321 49.2647 14.8721 49.7647 15.5021C50.4047 16.3221 51.5147 15.5221 51.4047 14.6621C51.2047 13.1121 50.9547 11.5721 50.6747 10.0321C51.6847 11.7421 52.5947 13.5021 53.3247 15.3321C51.8747 15.7921 50.4447 16.0821 48.7747 15.8221C46.2847 15.4221 44.2747 14.1521 42.6047 12.3721C42.7947 12.1921 42.9847 12.0121 43.1747 11.8321H43.1647ZM39.9147 15.0321C40.3247 14.6221 40.7447 14.2121 41.1547 13.8021C44.2147 18.3921 52.1847 20.6121 56.4447 16.5921C56.4947 17.4021 56.5447 18.2121 56.5947 19.0221C56.8547 24.1521 56.8847 29.2921 56.9247 34.4221C55.3847 35.5321 54.0947 36.6921 51.9647 36.0621C50.4347 35.6021 49.4847 34.4521 48.9147 33.0821C49.0547 32.6421 49.1147 32.1621 49.0347 31.6621C48.9347 31.0121 48.1447 30.7121 47.6047 30.9921C47.2747 31.0421 46.9547 31.3021 46.8747 31.6921C45.8547 32.8721 45.0947 34.1821 43.1647 34.0221C41.5847 33.8921 40.4547 32.6821 40.0147 31.2521C40.2947 30.9121 40.5347 30.5421 40.7047 30.1221C40.9447 29.5321 40.4247 29.0221 39.8747 29.0021C39.8447 28.3321 38.9747 28.0921 38.6547 28.7821C38.5247 29.0621 38.4347 29.3521 38.3547 29.6521C38.1247 29.7721 37.9047 29.9021 37.6847 30.0121C37.3847 29.8621 36.9947 29.9221 36.8547 30.3621C36.8547 30.3821 36.8447 30.4021 36.8347 30.4321C35.9447 30.8221 35.0147 31.0421 33.8447 30.8221C31.5347 30.3921 30.0547 28.6221 29.3747 26.4821C32.7547 22.5421 36.2647 18.7221 39.9147 15.0321ZM16.8547 101.652C17.7947 102.312 18.7247 102.972 19.6647 103.632C19.7647 103.702 19.8747 103.722 19.9747 103.722C19.7347 104.312 19.5047 104.912 19.2647 105.502C18.4647 104.222 17.6647 102.942 16.8547 101.662V101.652ZM16.3047 103.372C15.8947 103.002 15.4947 102.632 15.0847 102.262C15.1447 102.002 15.2147 101.752 15.2747 101.492C15.5947 102.092 15.9347 102.742 16.3047 103.372ZM15.7947 99.5121C15.9947 98.7821 16.2047 98.0421 16.4147 97.3121C16.9947 98.6621 17.6247 99.9821 18.3047 101.282C17.4647 100.692 16.6247 100.102 15.7947 99.5121ZM17.3847 96.6221C18.8247 97.6321 20.1547 98.7221 21.4647 99.9621C21.1047 100.882 20.7347 101.792 20.3647 102.712C19.2447 100.722 18.2647 98.7121 17.3747 96.6221H17.3847ZM17.0947 95.0821C17.5647 93.5921 18.0647 92.1221 18.5847 90.6421C19.7747 93.1321 21.9047 97.8121 21.2447 98.3021C21.3147 98.2521 18.4147 96.0621 17.0847 95.0821H17.0947ZM20.1147 91.3121C21.2347 92.3321 22.3647 93.3621 23.4847 94.3821C23.5147 94.4121 23.5547 94.4221 23.5847 94.4421C23.1147 95.6721 22.6547 96.9121 22.1847 98.1421C21.6647 95.7921 20.9947 93.5321 20.1147 91.3121ZM19.2247 88.8821C19.4447 88.2821 19.6747 87.6821 19.8947 87.0721C20.3647 88.4121 20.9047 89.7121 21.5447 90.9821C20.7747 90.2821 20.0047 89.5821 19.2247 88.8821ZM20.6647 85.0521C20.6647 85.0521 20.6947 84.9821 20.7047 84.9521C22.1547 86.1621 23.6047 87.3721 25.0547 88.5921C25.2847 88.7921 25.6147 88.7021 25.8247 88.5121C25.2647 90.0321 24.6847 91.5421 24.1147 93.0521C22.6547 90.4921 21.4947 87.8621 20.6647 85.0621V85.0521ZM31.2747 56.3121C31.5247 55.5421 31.7647 54.7621 32.0147 53.9921C32.4647 55.0521 32.9547 56.1021 33.4847 57.1321C32.8147 56.8021 32.0947 56.5421 31.2747 56.3121ZM32.7847 62.8721C31.7447 62.3021 30.6947 61.7321 29.6547 61.1621C29.9547 60.2921 30.2447 59.4321 30.5347 58.5621C31.2847 60.0021 32.0347 61.4421 32.7847 62.8821V62.8721ZM33.0647 50.5821C33.2347 50.0121 33.3947 49.4521 33.5647 48.8821C33.9847 49.8221 34.4047 50.7521 34.8247 51.6821C34.2547 51.2921 33.6647 50.9321 33.0647 50.5821ZM30.1647 68.8821C29.2847 68.3421 28.3947 67.8021 27.5147 67.2721C27.8147 66.4321 28.1247 65.5821 28.4247 64.7421C29.0047 66.1221 29.5847 67.5021 30.1747 68.8821H30.1647ZM34.6347 45.1321C34.8947 44.2021 35.1447 43.2721 35.3847 42.3421C35.7947 43.6521 36.2047 44.9521 36.6147 46.2521C35.9847 45.8421 35.3247 45.4621 34.6247 45.1321H34.6347ZM28.3047 73.7321C27.4847 73.1321 26.6447 72.5821 25.7547 72.0621C26.0647 71.2421 26.3747 70.4221 26.6847 69.5921C27.2247 70.9721 27.7647 72.3521 28.3147 73.7321H28.3047ZM36.4147 39.3821C36.3447 39.3021 36.2547 39.2421 36.1747 39.1921C36.3047 38.6521 36.4447 38.1121 36.5747 37.5721C37.0347 38.7621 37.5047 39.9521 37.9747 41.1421C37.4547 40.5521 36.9347 39.9721 36.4247 39.3821H36.4147ZM24.6847 74.8121C25.4847 76.8021 26.2947 78.7821 27.1247 80.7621C25.9147 79.7921 24.7047 78.8121 23.4947 77.8421C23.8947 76.8321 24.2947 75.8221 24.6847 74.8121ZM21.2047 83.6621C21.5647 82.7221 21.9347 81.7921 22.3047 80.8521C22.9047 82.6121 23.4947 84.3621 24.0847 86.1221C23.1247 85.3021 22.1647 84.4821 21.1947 83.6621H21.2047ZM23.4847 79.7721C24.9147 80.9121 26.3447 82.0421 27.7747 83.1821C27.1947 84.7821 26.6147 86.3821 26.0247 87.9721C26.0247 87.9521 26.0247 87.9421 26.0247 87.9221C25.1647 85.2121 24.3347 82.4921 23.4947 79.7721H23.4847ZM26.0547 74.0321C27.2347 74.7521 28.3147 75.5421 29.4747 76.5721C29.6647 76.7421 29.8647 76.8021 30.0547 76.7921C29.6047 78.0621 29.1547 79.3421 28.7047 80.6221C27.8347 78.4221 26.9547 76.2221 26.0647 74.0321H26.0547ZM28.4947 69.8021C29.4847 70.3921 30.4747 70.9921 31.4647 71.5821C31.5947 71.6621 31.7347 71.6921 31.8647 71.7021C31.4347 72.9121 31.0047 74.1321 30.5747 75.3421C29.8947 73.4921 29.1947 71.6421 28.4947 69.8021ZM29.2647 62.6721C30.8847 63.5321 32.4947 64.3921 34.1147 65.2621C33.5547 66.8621 33.0047 68.4621 32.4447 70.0521C31.4047 67.5821 30.3447 65.1221 29.2647 62.6721ZM32.1247 58.2121C33.2947 58.6821 34.3547 59.4021 35.2947 60.3821C35.4247 60.5021 35.5747 60.5621 35.7347 60.5921C35.4047 61.5421 35.0747 62.4821 34.7447 63.4321C33.8647 61.6921 32.9947 59.9521 32.1147 58.2121H32.1247ZM33.4447 52.8921C34.5247 53.6021 35.5647 54.3621 36.5847 55.2321C36.9647 55.5521 37.3647 55.4321 37.6347 55.1421C37.2047 56.3821 36.7747 57.6121 36.3447 58.8421C35.2547 56.9021 34.2847 54.9321 33.4447 52.8921ZM37.8647 54.0921C36.8547 51.7721 35.8147 49.4621 34.7747 47.1521C35.9047 47.7821 36.9247 48.5921 37.7947 49.6221C38.4247 50.2621 39.7747 49.7621 39.4747 48.7721C39.0047 47.2321 38.5247 45.7021 38.0447 44.1621C38.8047 45.0321 39.5647 45.9121 40.3047 46.8021C40.3647 46.8821 40.4447 46.9221 40.5147 46.9721C39.6547 49.4221 38.7947 51.8721 37.9347 54.3321C37.9347 54.2521 37.9147 54.1721 37.8747 54.0921H37.8647ZM38.8347 37.4521C39.5347 37.9521 40.1247 38.5921 40.5947 39.3621C40.9947 39.8921 41.9847 39.8221 42.3147 39.2421C42.5347 38.8421 42.7547 38.4421 42.9647 38.0521C43.6147 36.8621 41.9147 35.7021 41.2047 36.7721C40.1047 35.6721 38.9047 34.9621 37.2947 34.3821C37.4047 33.8821 37.5247 33.3821 37.6247 32.8721C37.8947 32.7721 38.1647 32.6621 38.4147 32.5321C38.9347 34.3321 40.3247 35.8821 42.2547 36.3521C42.8647 36.5021 43.5547 36.5021 44.2747 36.4021C43.3247 39.0221 42.3847 41.6421 41.4547 44.2621C40.5847 41.9921 39.7147 39.7221 38.8347 37.4621V37.4521ZM8.67472 86.3221C15.0247 67.2521 22.5447 48.4821 28.4547 29.2721C29.3347 31.0721 30.9047 32.4921 32.9447 33.0621C33.8747 33.3221 34.9347 33.3821 35.9747 33.2521C34.8047 37.0421 33.6547 40.8421 32.4947 44.6321C32.1947 44.8721 32.0447 45.3121 32.1647 45.7021C30.6747 50.5521 29.1647 55.4021 27.5647 60.2221C27.1047 60.3021 26.7847 60.7821 27.0047 61.3121C27.0447 61.4021 27.0747 61.4821 27.1147 61.5721C26.2947 64.0321 25.4447 66.4821 24.5647 68.9221C22.9347 73.4221 21.1047 77.8721 19.3447 82.3521C18.9947 82.4221 18.6947 82.8021 18.7847 83.1621C18.8147 83.2921 18.8547 83.4221 18.8847 83.5521C16.1947 90.4521 13.7247 97.4221 12.4647 104.722C12.2647 105.862 14.2547 106.232 14.4847 105.092C14.6247 104.402 14.7747 103.722 14.9347 103.042C16.2047 104.312 17.4847 105.582 18.7547 106.862C18.7247 106.942 18.6947 107.012 18.6647 107.092C18.5147 107.452 18.5647 107.762 18.7247 108.002C13.3947 106.702 8.34472 104.592 3.40472 101.452C4.81472 96.1121 7.20471 90.8021 8.68471 86.3421L8.67472 86.3221ZM2.99473 103.042C11.0247 108.692 20.7647 112.032 30.6447 111.702C31.9547 111.662 32.0947 109.692 30.7347 109.632C27.1047 109.472 23.6247 109.052 20.2747 108.332C20.4947 108.212 20.6847 108.042 20.8047 107.762C30.5447 84.5721 40.0547 60.5421 45.7747 35.9821C46.3547 35.7621 46.9047 35.4721 47.3847 35.1121C48.1647 36.7721 49.6647 38.1021 51.4547 38.6021C52.7147 38.9521 54.2247 38.9021 55.5847 38.4721C50.7647 53.3021 45.9847 68.1521 41.1947 82.9921C38.7547 90.5721 36.3047 98.1421 33.8647 105.722C32.8847 108.762 31.6747 111.872 30.8047 114.992C30.7747 114.992 30.7547 114.972 30.7247 114.962C25.9547 114.082 21.1847 113.982 16.4747 112.592C11.4447 111.112 6.89472 108.662 2.45472 105.922C2.58472 104.962 2.76472 103.992 2.98472 103.032L2.99473 103.042ZM29.7347 119.382C21.9547 127.022 9.00472 126.692 3.78472 116.202C2.43472 113.492 2.08473 110.512 2.30473 107.442C9.67472 113.362 21.0347 117.962 30.4647 116.292C30.3947 116.572 30.3247 116.852 30.2647 117.132C30.0747 117.992 29.8947 118.612 29.9847 119.222C29.8947 119.262 29.8047 119.302 29.7347 119.382Z" fill="#328459"/>
</svg>
