<svg width="86" height="86" viewBox="0 0 86 86" fill="none" xmlns="http://www.w3.org/2000/svg">
<path id="Vector" d="M84.9983 22.7242C85.2383 22.0042 84.9583 21.0642 84.1083 20.9142C56.0883 15.8942 28.7983 8.45423 1.62828 0.044231C0.908278 -0.175769 -0.101722 0.454229 0.00827791 1.28423C1.53828 13.0142 1.91828 24.8742 1.64828 36.6942C1.62828 37.4742 2.24828 37.8342 2.84828 37.7942C3.52828 39.0142 4.59828 40.1642 5.33828 41.1842C6.32828 42.5542 7.22828 44.2742 8.60828 45.2842C7.42828 45.6742 6.24828 46.0642 5.06828 46.4642C4.84828 46.5342 4.70828 46.6742 4.62828 46.8342C4.38828 46.8842 4.17828 47.0642 4.17828 47.3542C4.35828 59.9842 7.74828 72.7742 11.6183 84.7142C11.9383 85.6942 13.0383 85.9242 13.7883 85.2842C37.6083 65.0842 61.4383 44.8842 85.2583 24.6942C86.0183 24.0442 85.6683 23.1342 84.9883 22.7342L84.9983 22.7242ZM2.73828 3.13423C26.6683 11.5242 51.4983 17.5942 76.4183 22.2742C52.3083 26.9342 28.0583 30.8042 3.98828 35.6542C4.21828 24.7742 3.66828 13.9742 2.72828 3.13423H2.73828ZM10.1883 44.2442C10.4283 44.5342 10.7683 44.5742 11.0683 44.4742C10.7183 44.5842 10.3783 44.6942 10.0283 44.8042C10.0283 44.7142 10.0283 44.6242 9.99828 44.5242C9.86828 44.1342 9.68828 43.7542 9.46828 43.3842C9.70828 43.6642 9.94828 43.9542 10.1783 44.2342L10.1883 44.2442ZM11.6283 43.1342C11.2983 42.6242 10.9583 42.1042 10.6283 41.5942C10.5083 41.4142 10.3383 41.3342 10.1783 41.3342C10.0183 41.1442 9.86828 40.9542 9.70828 40.7542C11.1683 41.5942 12.5783 42.5442 13.9383 43.5542C12.9983 43.8542 12.0483 44.1542 11.1083 44.4542C11.6083 44.2642 11.9883 43.6642 11.6383 43.1242L11.6283 43.1342ZM15.2283 43.1542C15.2083 43.0442 15.1683 42.9342 15.0683 42.8342C14.4783 42.2942 10.2083 37.5242 10.2083 37.5242C11.3683 36.9942 16.5683 41.1642 17.9683 42.2842C17.0483 42.5642 16.1383 42.8642 15.2283 43.1542ZM52.5083 30.2942L52.4483 30.8842C51.3383 30.4142 50.1183 30.4142 49.7883 31.4342C48.9283 31.1242 48.1383 31.0042 47.0983 31.0242C46.7283 31.0242 46.4483 31.3242 46.4283 31.6942C45.5483 32.4242 44.6283 32.3442 43.6883 31.4742C43.1783 31.2742 42.8383 31.8442 42.8983 32.2642C42.9383 32.5442 42.9683 32.7442 42.9883 32.9042C42.2383 32.5342 41.4783 32.1742 40.7383 31.7942C44.8183 31.0942 48.8983 30.3542 52.9783 29.5942C52.6883 29.7042 52.5283 29.9942 52.4983 30.2942H52.5083ZM39.2583 32.0442C39.2583 32.0442 39.2683 32.1042 39.2783 32.1342C39.5183 32.6942 39.7683 33.2542 40.0083 33.8142C39.0183 33.3042 38.0083 32.8442 36.9683 32.4342C37.7283 32.3042 38.4883 32.1742 39.2583 32.0442ZM35.6483 33.0042C35.8383 33.7942 35.9283 34.1942 36.0083 34.4842C35.1783 34.0342 34.3483 33.5842 33.5283 33.1142C33.4583 33.0742 33.3983 33.0542 33.3283 33.0442C34.1083 32.9142 34.8883 32.7842 35.6583 32.6542C35.6183 32.7642 35.6083 32.8942 35.6383 33.0042H35.6483ZM32.6783 33.9542C32.8983 34.4142 33.1083 34.8842 33.3283 35.3542C32.2483 34.7542 31.1683 34.1542 30.0883 33.5542C31.0383 33.4042 31.9883 33.2542 32.9383 33.1042C32.6683 33.2642 32.5283 33.6342 32.6883 33.9642L32.6783 33.9542ZM27.8883 33.8942C28.1083 34.6542 28.3883 35.3442 28.6883 36.0042C27.5983 35.3742 26.4783 34.8142 25.3183 34.2842C26.1783 34.1542 27.0383 34.0242 27.8883 33.8942ZM23.4183 35.2742C23.5883 35.4742 23.7583 35.6742 23.9283 35.8742C23.2883 35.5042 22.6483 35.1242 21.9983 34.7642C22.4083 34.7042 22.8183 34.6442 23.2283 34.5842C23.2083 34.8342 23.2583 35.0842 23.4183 35.2742ZM20.4583 35.5142C21.0483 36.3642 21.6383 37.2142 22.2283 38.0642C20.8983 37.2142 19.6183 36.2942 18.3483 35.2842C19.0183 35.1942 19.6883 35.0942 20.3583 35.0042C20.3183 35.1642 20.3483 35.3442 20.4683 35.5142H20.4583ZM16.6483 35.5142C16.6683 35.5642 16.6783 35.6142 16.7083 35.6742C17.1383 36.3842 17.5883 37.0242 18.0483 37.6342C17.0283 37.0042 15.9983 36.3742 14.9783 35.7342C15.5383 35.6642 16.0883 35.5842 16.6483 35.5142ZM13.8183 36.0942C14.0483 36.4942 15.0883 38.3642 16.0283 39.6742C14.2483 38.5742 11.3683 37.0642 10.0083 36.3742C11.2583 36.2242 12.5083 36.0642 13.7683 35.9042C13.7683 35.9642 13.7883 36.0342 13.8283 36.0942H13.8183ZM18.8883 42.0042C18.8883 42.0042 18.8683 41.9442 18.8483 41.9242C17.9383 40.7642 16.9283 39.5642 16.2183 38.2642C15.9383 37.7642 15.6683 37.4842 15.5183 37.3542C15.6383 37.4242 15.8283 37.5142 16.1483 37.6342C17.9883 38.3342 19.9283 39.8942 21.6283 41.1642C20.7183 41.4442 19.8083 41.7242 18.8983 42.0042H18.8883ZM23.1883 40.6842C23.1883 40.6842 23.1883 40.6742 23.1783 40.6642C22.3183 40.0442 21.5983 39.4542 20.9483 38.8342C21.8183 39.4242 22.6983 39.9942 23.5983 40.5542C23.4683 40.5942 23.3283 40.6342 23.1983 40.6742L23.1883 40.6842ZM25.4083 40.0042C24.8383 39.1642 24.2583 38.3242 23.6783 37.4842C24.7783 38.1342 25.8583 38.8142 26.9183 39.5442C26.4183 39.6942 25.9183 39.8542 25.4083 40.0042ZM28.5783 39.0342C28.5783 38.8542 28.5183 38.6642 28.3883 38.5142C28.0083 38.0642 27.6383 37.6142 27.2583 37.1642C28.1083 37.6242 28.9383 38.1342 29.7583 38.6742C29.3683 38.7942 28.9683 38.9142 28.5783 39.0342ZM31.9183 38.0142C31.1583 37.1442 30.5283 36.1942 30.0283 35.1742C31.4083 35.8942 32.7883 36.6042 34.1683 37.3242C33.4183 37.5542 32.6683 37.7842 31.9083 38.0142H31.9183ZM35.2983 36.5642C35.0783 36.1042 34.8583 35.6442 34.6383 35.1942C35.3883 35.6242 36.1383 36.0442 36.8783 36.4842C36.3783 36.6442 35.8683 36.8042 35.3683 36.9542C35.3783 36.8342 35.3683 36.6942 35.3083 36.5642H35.2983ZM38.0383 35.7242C36.9883 33.6942 39.2283 34.7642 40.3583 35.3842C39.6083 35.6242 38.8583 35.8542 38.0983 36.0942C38.1083 35.9742 38.0983 35.8442 38.0283 35.7242H38.0383ZM41.8183 34.9342C41.8183 34.9342 41.8183 34.9142 41.8083 34.9042C40.2883 31.8342 41.8083 33.3842 43.4083 34.4242C43.0683 34.5342 42.7283 34.6442 42.3883 34.7542C42.1983 34.8142 42.0083 34.8742 41.8183 34.9342ZM44.7583 33.9842C44.7583 33.9842 44.7383 33.9142 44.7283 33.8842C45.0783 33.2542 45.5483 33.1442 46.1483 33.5342C45.6883 33.6842 45.2283 33.8342 44.7683 33.9842H44.7583ZM59.9183 28.3042C61.1183 28.0742 62.3183 27.8542 63.5083 27.6242C62.3383 28.0242 61.1783 28.4242 60.0083 28.8242C60.0083 28.7542 60.0083 28.7042 60.0083 28.6242C59.9983 28.5042 59.9583 28.4042 59.9083 28.3042H59.9183ZM4.44828 37.0342C5.78828 36.8842 7.11828 36.7242 8.45828 36.5642C8.46828 36.6142 8.48828 36.6742 8.51828 36.7242C9.14828 37.7542 9.81828 38.7142 10.5183 39.6442C9.27828 38.8642 8.01828 38.1042 6.71828 37.3642C6.13828 37.0342 5.33828 37.5642 5.35828 38.1642C5.05828 37.7742 4.75828 37.3842 4.42828 37.0342H4.44828ZM13.5283 82.1042C10.0583 70.8642 8.01828 59.4342 5.40828 47.9842C5.42828 47.9842 5.44828 47.9842 5.46828 47.9842C18.1183 44.8942 30.5483 40.8042 42.9483 36.8442C55.3183 32.8942 67.9583 29.1942 80.0183 24.3842C80.0383 24.3842 80.0483 24.3642 80.0683 24.3542C80.7483 24.2242 81.4283 24.0842 82.1083 23.9542C59.2483 43.3342 36.3783 62.7242 13.5183 82.1042H13.5283Z" fill="#989898"/>
</svg>
