<svg width="94" height="30" viewBox="0 0 94 30" fill="none" xmlns="http://www.w3.org/2000/svg">
<path id="Vector" d="M1.10613 5.91486C-0.401201 6.89791 0.956672 9.35053 2.47686 8.3553C12.3195 1.92596 24.6796 2.59051 35.7929 4.71719C41.0046 5.71392 46.2706 7.11676 50.9122 9.73345C51.0304 9.79829 51.1549 9.8695 51.2793 9.9407C48.6421 12.5068 46.9757 15.9098 47.0867 20.1173C47.209 24.6802 50.4357 29.2538 55.4374 29.1807C59.5824 29.1204 62.4617 25.2513 62.7143 21.4129C63.0491 16.3863 60.041 12.484 55.8725 9.53487C58.6382 7.7254 61.9964 6.7697 65.3503 6.59887C76.5213 6.04172 86.6392 12.8754 92.0108 22.2485C92.4114 22.9487 93.4 22.3656 93.0941 21.6551C88.9546 12.0904 79.4305 5.46884 69.0195 4.36028C63.8674 3.81338 57.9645 5.08814 53.5866 8.07153C48.9839 5.39961 43.5607 3.69435 39.588 2.7741C27.0244 -0.143805 12.3977 -1.41779 1.10613 5.91486ZM59.3081 23.7194C57.3761 27.4656 52.6059 27.0204 50.6735 23.4652C49.147 20.6538 49.7647 17.1161 51.2583 14.432C51.8873 13.293 52.6708 12.2944 53.5588 11.4101C57.6339 14.3075 61.8117 18.8704 59.3081 23.7194Z" fill="#328459"/>
</svg>
