<svg width="128" height="85" viewBox="0 0 128 85" fill="none" xmlns="http://www.w3.org/2000/svg">
<path id="Vector" d="M127.739 4.00244C128.522 1.24314 124.318 -0.331493 123.533 2.45596C118.432 20.4861 102.869 32.4992 87.2727 41.4405C79.9595 45.6343 72.1553 49.3905 63.8301 51.0226C63.6199 51.0664 63.3956 51.1088 63.1714 51.1513C63.6541 45.2946 62.0922 39.4267 57.5491 34.4241C52.6202 29.001 43.946 26.7851 38.0065 32.0624C33.0841 36.4355 33.6757 44.1284 37.3945 49.0591C42.2596 55.5203 49.9673 57.1464 58.0719 56.4096C56.6416 61.4794 53.6039 66.1253 49.7488 69.8122C36.8961 82.0778 17.5646 84.2612 1.28058 78.4325C0.0650361 77.9964 -0.513085 79.7311 0.599489 80.2781C15.6022 87.6179 33.9973 85.7923 47.6815 76.3412C54.4517 71.662 60.2158 63.9882 62.355 55.8182C70.6913 54.2937 79.0014 50.7423 84.7443 47.7406C102.914 38.2573 121.842 24.6343 127.739 4.00244ZM39.0742 42.7203C37.472 36.1596 43.6763 31.753 49.7264 34.0727C54.5088 35.9088 57.4733 40.8526 58.4898 45.6666C58.9269 47.7045 59.031 49.7319 58.8895 51.7286C50.9516 52.4317 41.1446 51.2154 39.0742 42.7203Z" fill="#ffffff8c"/>
</svg>
