<svg width="111" height="88" viewBox="0 0 111 88" fill="none" xmlns="http://www.w3.org/2000/svg">
<path id="Vector" d="M30.8372 0.0961468C38.3847 -0.376838 46.5144 2.09114 51.2981 8.12234C52.7276 7.22995 54.2502 6.49667 55.8151 5.94727C74.1905 -0.425302 89.8119 15.7053 98.3479 29.8977C108.45 46.6936 114.884 68.2005 105.406 86.6473C104.708 87.9934 102.418 86.8431 103.009 85.439C109.281 70.5189 106.068 54.2075 99.2294 40.0617C92.5026 26.1448 80.9246 8.65948 63.4495 8.90015C59.9102 8.94782 56.497 9.9171 53.5266 11.7798C55.9521 17.1343 56.3146 24.6649 51.2532 28.3553C45.513 32.5413 40.6981 27.06 41.8101 21.234C42.5907 17.1342 44.8494 13.5025 47.9027 10.6952C45.218 7.40923 41.1533 5.42416 36.9802 4.70291C21.5285 2.02407 7.81634 14.1641 5.01033 28.789C4.51491 31.3579 0.530993 31.2839 0.816549 28.5261C2.34872 13.546 15.8876 1.05 30.8245 0.102338L30.8372 0.0961468ZM45.8565 23.456C48.2236 25.0878 49.6359 24.9194 50.0966 22.9415C50.6892 21.9295 50.9762 20.8225 50.9668 19.6238C51.0675 17.8919 50.7477 16.1523 50.1292 14.5423C47.849 16.9183 44.9127 20.9192 45.8471 23.4528L45.8565 23.456Z" fill="#989898"/>
</svg>
