<svg width="235.0671" height="165.9995" xmlns="http://www.w3.org/2000/svg">

 <g>
  <title>Layer 1</title>
  <path id="svg_1" fill="red" d="m229.763,25.817c-2.699,-10.162 -10.65,-18.165 -20.748,-20.881c-18.299,-4.936 -91.682,-4.936 -91.682,-4.936s-73.382,0 -91.682,4.936c-10.098,2.716 -18.051,10.719 -20.748,20.881c-4.903,18.419 -4.903,56.85 -4.903,56.85s0,38.429 4.903,56.85c2.697,10.163 10.65,18.164 20.747,20.883c18.3,4.934 91.682,4.934 91.682,4.934s73.383,0 91.682,-4.934c10.098,-2.718 18.049,-10.72 20.748,-20.882c4.904,-18.421 4.904,-56.85 4.904,-56.85s0,-38.431 -4.904,-56.85"/>
  <path id="svg_2" fill="#fff" d="m93.333,117.559l61.333,-34.89l-61.333,-34.894l0,69.784z"/>
 </g>
</svg>