<svg width="24" height="24" viewBox="0 0 24 24" fill="none" xmlns="http://www.w3.org/2000/svg">
<path d="M19 7.37L20.13 6.24C20.2216 6.14654 20.2729 6.02088 20.2729 5.89C20.2729 5.75912 20.2216 5.63346 20.13 5.54L19.42 4.83C19.3735 4.78314 19.3182 4.74594 19.2573 4.72055C19.1964 4.69517 19.131 4.6821 19.065 4.6821C18.999 4.6821 18.9336 4.69517 18.8727 4.72055C18.8118 4.74594 18.7565 4.78314 18.71 4.83L17.6 6C16.5484 5.14667 15.3179 4.54164 14 4.23V3C14 2.73478 13.8946 2.48043 13.7071 2.29289C13.5196 2.10536 13.2652 2 13 2H11C10.7348 2 10.4804 2.10536 10.2929 2.29289C10.1054 2.48043 10 2.73478 10 3V4.23C8.01247 4.683 6.23759 5.79732 4.96592 7.39054C3.69425 8.98376 3.00112 10.9615 3 13C3.02627 15.3343 3.94764 17.5694 5.57397 19.2441C7.2003 20.9189 9.40748 21.9053 11.74 22C13.4564 22.046 15.1501 21.6 16.6212 20.7148C18.0924 19.8295 19.2797 18.5419 20.0429 17.0039C20.8061 15.4659 21.1135 13.7416 20.9287 12.0346C20.7439 10.3276 20.0747 8.70906 19 7.37ZM12 20C10.6155 20 9.26215 19.5895 8.11101 18.8203C6.95986 18.0511 6.06266 16.9579 5.53284 15.6788C5.00303 14.3997 4.86441 12.9922 5.1345 11.6344C5.4046 10.2765 6.07128 9.02922 7.05025 8.05025C8.02922 7.07129 9.2765 6.4046 10.6344 6.1345C11.9922 5.86441 13.3997 6.00303 14.6788 6.53284C15.9579 7.06266 17.0511 7.95986 17.8203 9.11101C18.5895 10.2622 19 11.6155 19 13C19 14.8565 18.2625 16.637 16.9497 17.9497C15.637 19.2625 13.8565 20 12 20ZM12.58 8C12.5082 7.99005 12.4352 7.99551 12.3657 8.01601C12.2962 8.03651 12.2319 8.07158 12.177 8.11889C12.1221 8.1662 12.0779 8.22466 12.0474 8.29037C12.0169 8.35609 12.0007 8.42755 12 8.5V13L15.16 16.16C15.2113 16.2105 15.2726 16.2495 15.3401 16.2746C15.4075 16.2996 15.4794 16.3101 15.5512 16.3054C15.623 16.3007 15.6929 16.2808 15.7565 16.2472C15.8201 16.2135 15.8758 16.1667 15.92 16.11C16.4833 15.4121 16.8485 14.5756 16.9774 13.6881C17.1063 12.8006 16.9941 11.8948 16.6525 11.0655C16.311 10.2363 15.7528 9.51417 15.0363 8.97482C14.3197 8.43548 13.4714 8.09878 12.58 8Z" fill="#101840"/>
</svg>
