<svg width="16" height="20" viewBox="0 0 16 20" fill="none" xmlns="http://www.w3.org/2000/svg">
<path d="M15.71 13.71L14.88 12.88C14.3172 12.3179 14.0007 11.5554 14 10.76V8C14 6.70178 13.5789 5.43858 12.8 4.4L11.9 3.2C11.6206 2.82741 11.2582 2.525 10.8416 2.31672C10.4251 2.10844 9.96573 2 9.5 2H9V0.5C9 0.367392 8.94732 0.240215 8.85355 0.146447C8.75978 0.0526785 8.63261 0 8.5 0H7.5C7.36739 0 7.24021 0.0526785 7.14645 0.146447C7.05268 0.240215 7 0.367392 7 0.5V2H6.5C6.03426 2 5.57492 2.10844 5.15836 2.31672C4.74179 2.525 4.37944 2.82741 4.1 3.2L3.2 4.4C2.42107 5.43858 2 6.70178 2 8V10.76C1.9993 11.5554 1.68277 12.3179 1.12 12.88L0.29 13.71C0.105256 13.8963 0.00110462 14.1477 0 14.41V15C0 15.2652 0.105357 15.5196 0.292893 15.7071C0.48043 15.8946 0.734783 16 1 16H15C15.2652 16 15.5196 15.8946 15.7071 15.7071C15.8946 15.5196 16 15.2652 16 15V14.41C15.9989 14.1477 15.8947 13.8963 15.71 13.71ZM12 14H4V8C4 7.13452 4.28071 6.29239 4.8 5.6L5.7 4.4C5.79315 4.2758 5.91393 4.175 6.05279 4.10557C6.19164 4.03615 6.34475 4 6.5 4H9.5C9.65524 4 9.80836 4.03615 9.94721 4.10557C10.0861 4.175 10.2069 4.2758 10.3 4.4L11.2 5.6C11.7193 6.29239 12 7.13452 12 8V14ZM6 18H10C10 18.5304 9.78928 19.0391 9.41421 19.4142C9.03914 19.7893 8.53043 20 8 20C7.46957 20 6.96086 19.7893 6.58579 19.4142C6.21071 19.0391 6 18.5304 6 18Z" fill="#8F95B2"/>
</svg>
