<svg width="66" height="25" viewBox="0 0 66 25" fill="none" xmlns="http://www.w3.org/2000/svg">
<rect y="0.650391" width="66" height="24" rx="4" fill="#F2C94C"/>
<path d="M39.0028 7.92312V16.6504H37.7926L33.3565 10.2498H33.2756V16.6504H31.9588V7.92312H33.1776L37.6179 14.3322H37.6989V7.92312H39.0028ZM43.6424 16.7825C42.9975 16.7825 42.4421 16.6447 41.9762 16.3691C41.5131 16.0907 41.1552 15.7001 40.9023 15.1973C40.6523 14.6916 40.5273 14.0993 40.5273 13.4203C40.5273 12.7498 40.6523 12.1589 40.9023 11.6475C41.1552 11.1362 41.5075 10.737 41.9592 10.4501C42.4137 10.1632 42.945 10.0197 43.5529 10.0197C43.9222 10.0197 44.2802 10.0808 44.6268 10.2029C44.9734 10.3251 45.2844 10.5169 45.56 10.7782C45.8356 11.0396 46.0529 11.3791 46.212 11.7967C46.3711 12.2115 46.4506 12.7157 46.4506 13.3095V13.7612H41.2475V12.8066H45.2021C45.2021 12.4714 45.1339 12.1745 44.9975 11.916C44.8612 11.6547 44.6694 11.4487 44.4222 11.2981C44.1779 11.1475 43.891 11.0723 43.5614 11.0723C43.2035 11.0723 42.891 11.1603 42.6239 11.3365C42.3597 11.5098 42.1552 11.737 42.0103 12.0183C41.8683 12.2967 41.7972 12.5993 41.7972 12.926V13.6717C41.7972 14.1092 41.8739 14.4814 42.0273 14.7882C42.1836 15.095 42.4009 15.3294 42.6793 15.4913C42.9577 15.6504 43.283 15.7299 43.6552 15.7299C43.8967 15.7299 44.1168 15.6958 44.3157 15.6277C44.5146 15.5566 44.6864 15.4515 44.8313 15.3123C44.9762 15.1731 45.087 15.0012 45.1637 14.7967L46.3697 15.014C46.2731 15.3691 46.0998 15.6802 45.8498 15.9473C45.6026 16.2115 45.2915 16.4174 44.9165 16.5652C44.5444 16.71 44.1197 16.7825 43.6424 16.7825ZM49.2717 16.6504L47.3455 10.1049H48.6623L49.945 14.9118H50.0089L51.2958 10.1049H52.6126L53.891 14.8904H53.9549L55.229 10.1049H56.5458L54.6239 16.6504H53.3242L51.9947 11.9245H51.8967L50.5671 16.6504H49.2717Z" fill="white"/>
<path d="M21.4935 10.0904L18.7268 7.08372C18.6024 6.94764 18.451 6.83887 18.2823 6.76428C18.1136 6.68969 17.9313 6.65091 17.7468 6.65039H12.2535C12.0691 6.65091 11.8868 6.68969 11.7181 6.76428C11.5494 6.83887 11.398 6.94764 11.2735 7.08372L8.50685 10.0904C8.39416 10.2144 8.33228 10.3762 8.33351 10.5437V10.7437C8.33321 10.8995 8.38746 11.0504 8.48685 11.1704L14.4868 18.4104C14.5495 18.4856 14.628 18.5462 14.7167 18.5876C14.8055 18.6291 14.9022 18.6505 15.0002 18.6504C15.0981 18.6505 15.1949 18.6291 15.2836 18.5876C15.3723 18.5462 15.4508 18.4856 15.5135 18.4104L21.5135 11.1704C21.6129 11.0504 21.6672 10.8995 21.6668 10.7437V10.5437C21.6681 10.3762 21.6062 10.2144 21.4935 10.0904ZM15.0002 16.9571L13.1468 11.1171C13.1028 10.9766 13.0136 10.8546 12.893 10.7702C12.7724 10.6858 12.6272 10.6437 12.4802 10.6504H9.80685L12.2535 7.98372H17.7468L15.8402 10.0904C15.7959 10.1381 15.7666 10.1977 15.7559 10.2618C15.7451 10.326 15.7533 10.3919 15.7795 10.4514C15.8057 10.511 15.8488 10.5615 15.9034 10.5969C15.958 10.6322 16.0218 10.6508 16.0868 10.6504H20.1935L15.0002 16.9571Z" fill="white"/>
</svg>
