<svg width="16" height="17" viewBox="0 0 16 17" fill="none" xmlns="http://www.w3.org/2000/svg">
<path d="M10.3866 8.65034C10.3866 9.97034 9.31995 11.037 7.99995 11.037C6.67995 11.037 5.61328 9.97034 5.61328 8.65034C5.61328 7.33034 6.67995 6.26367 7.99995 6.26367C9.31995 6.26367 10.3866 7.33034 10.3866 8.65034Z" stroke="#474D66" stroke-width="1.5" stroke-linecap="round" stroke-linejoin="round"/>
<path d="M7.9999 14.1642C10.3532 14.1642 12.5466 12.7775 14.0732 10.3775C14.6732 9.43753 14.6732 7.85753 14.0732 6.91753C12.5466 4.51753 10.3532 3.13086 7.9999 3.13086C5.64656 3.13086 3.45323 4.51753 1.92656 6.91753C1.32656 7.85753 1.32656 9.43753 1.92656 10.3775C3.45323 12.7775 5.64656 14.1642 7.9999 14.1642Z" stroke="#474D66" stroke-width="1.5" stroke-linecap="round" stroke-linejoin="round"/>
</svg>
