<svg width="20" height="20" viewBox="0 0 20 20" fill="none" xmlns="http://www.w3.org/2000/svg">
<path d="M15.0002 9.99984V16.6665H5.00016V9.99984H15.0002ZM10.0002 1.6665C8.67408 1.6665 7.40231 2.19329 6.46463 3.13097C5.52695 4.06865 5.00016 5.34042 5.00016 6.6665V8.33317C4.55814 8.33317 4.13421 8.50877 3.82165 8.82133C3.50909 9.13389 3.3335 9.55781 3.3335 9.99984V16.6665C3.3335 17.1085 3.50909 17.5325 3.82165 17.845C4.13421 18.1576 4.55814 18.3332 5.00016 18.3332H15.0002C15.4422 18.3332 15.8661 18.1576 16.1787 17.845C16.4912 17.5325 16.6668 17.1085 16.6668 16.6665V9.99984C16.6668 9.55781 16.4912 9.13389 16.1787 8.82133C15.8661 8.50877 15.4422 8.33317 15.0002 8.33317V6.6665C15.0002 5.34042 14.4734 4.06865 13.5357 3.13097C12.598 2.19329 11.3262 1.6665 10.0002 1.6665ZM6.66683 8.33317V6.6665C6.66683 5.78245 7.01802 4.9346 7.64314 4.30948C8.26826 3.68436 9.11611 3.33317 10.0002 3.33317C10.8842 3.33317 11.7321 3.68436 12.3572 4.30948C12.9823 4.9346 13.3335 5.78245 13.3335 6.6665V8.33317H6.66683Z" fill="#474D66"/>
<path d="M10.8335 11.6665H9.16683C8.70659 11.6665 8.3335 12.0396 8.3335 12.4998V14.1665C8.3335 14.6267 8.70659 14.9998 9.16683 14.9998H10.8335C11.2937 14.9998 11.6668 14.6267 11.6668 14.1665V12.4998C11.6668 12.0396 11.2937 11.6665 10.8335 11.6665Z" fill="#474D66"/>
</svg>
