<svg width="16" height="17" viewBox="0 0 16 17" fill="none" xmlns="http://www.w3.org/2000/svg">
<path d="M9.33343 6.9834C9.33343 6.65376 9.43118 6.33153 9.61431 6.05745C9.79745 5.78337 10.0577 5.56975 10.3623 5.4436C10.6668 5.31745 11.0019 5.28445 11.3252 5.34876C11.6485 5.41307 11.9455 5.5718 12.1786 5.80489C12.4117 6.03798 12.5704 6.33495 12.6347 6.65825C12.699 6.98155 12.666 7.31666 12.5399 7.62121C12.4137 7.92575 12.2001 8.18605 11.926 8.36918C11.652 8.55232 11.3297 8.65007 11.0001 8.65007C10.5581 8.65007 10.1341 8.47447 9.82159 8.16191C9.50903 7.84935 9.33343 7.42543 9.33343 6.9834ZM6.0001 7.9834C6.39566 7.9834 6.78234 7.8661 7.11124 7.64634C7.44014 7.42658 7.69648 7.11422 7.84786 6.74877C7.99923 6.38331 8.03884 5.98118 7.96167 5.59322C7.8845 5.20526 7.69402 4.84889 7.41431 4.56919C7.13461 4.28948 6.77824 4.099 6.39028 4.02183C6.00232 3.94466 5.60018 3.98427 5.23473 4.13564C4.86928 4.28702 4.55692 4.54336 4.33716 4.87226C4.1174 5.20116 4.0001 5.58784 4.0001 5.9834C4.0001 6.51383 4.21081 7.02254 4.58588 7.39761C4.96096 7.77269 5.46967 7.9834 6.0001 7.9834ZM9.63343 10.4234C9.46714 10.0903 9.21117 9.81023 8.89434 9.61472C8.57751 9.4192 8.2124 9.316 7.8401 9.31673H4.1601C3.7878 9.316 3.42269 9.4192 3.10586 9.61472C2.78903 9.81023 2.53306 10.0903 2.36676 10.4234L1.40677 12.3501C1.35563 12.4516 1.33128 12.5644 1.33603 12.678C1.34079 12.7915 1.37449 12.902 1.43394 12.9988C1.49339 13.0957 1.57661 13.1757 1.6757 13.2314C1.77479 13.287 1.88646 13.3164 2.0001 13.3167H10.0001C10.1137 13.3164 10.2254 13.287 10.3245 13.2314C10.4236 13.1757 10.5068 13.0957 10.5663 12.9988C10.6257 12.902 10.6594 12.7915 10.6642 12.678C10.6689 12.5644 10.6446 12.4516 10.5934 12.3501L9.63343 10.4234ZM14.5934 12.3501L13.9601 11.0834C13.7934 10.7526 13.5381 10.4745 13.2226 10.2803C12.9071 10.0861 12.5439 9.98329 12.1734 9.9834H10.9001L11.7868 11.7567C11.9073 11.9967 11.9783 12.2585 11.9955 12.5266C12.0127 12.7946 11.9757 13.0633 11.8868 13.3167H14.0001C14.1137 13.3164 14.2254 13.287 14.3245 13.2314C14.4236 13.1757 14.5068 13.0957 14.5663 12.9988C14.6257 12.902 14.6594 12.7915 14.6642 12.678C14.6689 12.5644 14.6446 12.4516 14.5934 12.3501Z" fill="#101840"/>
</svg>
