<svg width="314" height="154" viewBox="0 0 314 154" fill="none" xmlns="http://www.w3.org/2000/svg">
<path d="M25.9225 152L0 53.1973H102.847V152H25.9225Z" fill="#DAE3F4"/>
<path d="M102.847 152V13.0039H221.061V152H102.847Z" fill="#DAE3F4"/>
<path d="M221.062 152V56.7432H313.269L289.861 152H221.062Z" fill="#DAE3F4"/>
<g filter="url(#filter0_b_1102_7680)">
<path d="M1.18164 53.1959L39.0103 42.5566H102.846V53.1959H1.18164Z" fill="#0D84E0"/>
</g>
<path d="M101.664 13.0036L121.761 0H203.329L221.061 13.0036H101.664Z" fill="#0D84E0"/>
<path d="M221.062 56.7433V47.2861H274.258L308.54 56.7433H221.062Z" fill="#0D84E0"/>
<g filter="url(#filter1_f_1102_7680)">
<path d="M101.664 151.406V52.0137L106.393 151.406H101.664Z" fill="#9FB0CF"/>
</g>
<g filter="url(#filter2_f_1102_7680)">
<path d="M217.515 151.411V86.3311L222.243 151.411H217.515Z" fill="#9FB0CF"/>
</g>
<path d="M134.891 126.961V104.91C134.891 102.815 136.589 101.116 138.684 101.116H183.255C185.35 101.116 187.048 102.815 187.048 104.91V127.028C187.048 129.651 184.45 131.483 181.979 130.601L161.795 123.392C160.955 123.092 160.037 123.097 159.202 123.407L140.001 130.518C137.524 131.436 134.891 129.603 134.891 126.961Z" fill="#FFC000"/>
<circle cx="161.444" cy="89.736" r="30.3464" fill="#FFC000"/>
<circle cx="161.444" cy="89.7365" r="24.6564" fill="#FFE75A"/>
<path d="M140.045 77.4555C141.626 74.6379 143.748 72.1595 146.287 70.1617C148.827 68.1639 151.735 66.6858 154.846 65.8119C157.956 64.938 161.209 64.6854 164.417 65.0685C167.626 65.4515 170.727 66.4628 173.545 68.0445C176.362 69.6262 178.841 71.7474 180.838 74.287C182.836 76.8265 184.314 79.7347 185.188 82.8454C186.062 85.9562 186.315 89.2086 185.932 92.417C185.549 95.6254 184.537 98.7269 182.956 101.545L161.5 89.5L140.045 77.4555Z" fill="#FFCC00"/>
<path d="M164.129 76.9561V101.277H159.328V82.4905L153.56 84.3242V80.5401L163.612 76.9561H164.129Z" fill="#FF8B00"/>
<path d="M239.779 133.208V117.916C239.779 116.463 240.957 115.285 242.41 115.285H273.319C274.772 115.285 275.95 116.463 275.95 117.916V133.255C275.95 135.074 274.148 136.344 272.435 135.732L258.437 130.733C257.855 130.525 257.218 130.529 256.639 130.743L243.324 135.675C241.605 136.311 239.779 135.04 239.779 133.208Z" fill="#D28D54"/>
<circle cx="258.193" cy="107.393" r="21.0447" fill="#D28D54"/>
<circle cx="258.194" cy="107.394" r="17.0989" fill="#F6B57F"/>
<path d="M243.352 98.8795C244.449 96.9255 245.92 95.2068 247.681 93.8213C249.443 92.4359 251.459 91.4109 253.617 90.8048C255.774 90.1988 258.029 90.0236 260.254 90.2893C262.479 90.5549 264.63 91.2562 266.584 92.3531C268.538 93.45 270.257 94.921 271.642 96.6821C273.028 98.4433 274.053 100.46 274.659 102.617C275.265 104.775 275.44 107.03 275.174 109.255C274.909 111.48 274.207 113.631 273.11 115.585L258.231 107.232L243.352 98.8795Z" fill="#E1A471"/>
<path d="M255.349 105.506H257.13C257.7 105.506 258.17 105.41 258.54 105.217C258.91 105.017 259.184 104.739 259.361 104.385C259.546 104.023 259.638 103.603 259.638 103.125C259.638 102.693 259.554 102.312 259.384 101.98C259.222 101.641 258.972 101.379 258.633 101.194C258.293 101.002 257.866 100.905 257.349 100.905C256.941 100.905 256.563 100.986 256.217 101.148C255.87 101.31 255.592 101.537 255.384 101.83C255.176 102.123 255.072 102.478 255.072 102.894H251.731C251.731 101.969 251.978 101.164 252.471 100.478C252.972 99.7917 253.642 99.2561 254.482 98.8707C255.323 98.4854 256.247 98.2927 257.257 98.2927C258.398 98.2927 259.396 98.4777 260.251 98.8476C261.106 99.2098 261.773 99.7455 262.251 100.454C262.729 101.164 262.968 102.042 262.968 103.09C262.968 103.622 262.844 104.138 262.598 104.639C262.351 105.133 261.997 105.58 261.534 105.98C261.08 106.373 260.525 106.689 259.87 106.928C259.214 107.159 258.478 107.275 257.662 107.275H255.349V105.506ZM255.349 108.038V106.316H257.662C258.579 106.316 259.384 106.42 260.078 106.628C260.771 106.836 261.353 107.136 261.823 107.529C262.293 107.915 262.648 108.373 262.887 108.905C263.126 109.429 263.245 110.011 263.245 110.651C263.245 111.437 263.095 112.138 262.794 112.755C262.494 113.363 262.07 113.88 261.523 114.304C260.983 114.728 260.351 115.051 259.627 115.275C258.902 115.49 258.112 115.598 257.257 115.598C256.548 115.598 255.85 115.502 255.165 115.309C254.486 115.109 253.87 114.812 253.315 114.419C252.768 114.018 252.328 113.518 251.997 112.916C251.673 112.308 251.511 111.587 251.511 110.755H254.852C254.852 111.186 254.96 111.572 255.176 111.911C255.392 112.25 255.689 112.516 256.066 112.708C256.452 112.901 256.879 112.997 257.349 112.997C257.881 112.997 258.336 112.901 258.714 112.708C259.099 112.508 259.392 112.231 259.592 111.876C259.8 111.514 259.904 111.094 259.904 110.616C259.904 109.999 259.792 109.506 259.569 109.136C259.345 108.759 259.026 108.481 258.609 108.304C258.193 108.127 257.7 108.038 257.13 108.038H255.349Z" fill="#C76F05"/>
<path d="M41.834 133.777V118.308C41.834 116.839 43.0253 115.647 44.495 115.647H75.7614C77.231 115.647 78.4223 116.839 78.4223 118.308V133.825C78.4223 135.665 76.5993 136.949 74.8664 136.33L60.7071 131.274C60.1183 131.063 59.4742 131.067 58.8879 131.284L45.4191 136.273C43.6812 136.916 41.834 135.631 41.834 133.777Z" fill="#A0B8CD"/>
<circle cx="60.4606" cy="107.665" r="21.2878" fill="#A0B8CD"/>
<circle cx="60.4604" cy="107.664" r="17.2963" fill="#D0E0ED"/>
<path d="M45.449 99.0509C46.5585 97.0744 48.0465 95.3357 49.828 93.9343C51.6095 92.5329 53.6495 91.496 55.8317 90.883C58.0139 90.27 60.2954 90.0927 62.5461 90.3615C64.7968 90.6302 66.9725 91.3396 68.949 92.4491C70.9255 93.5587 72.6641 95.0467 74.0655 96.8282C75.467 98.6096 76.5038 100.65 77.1168 102.832C77.7299 105.014 77.9071 107.296 77.6384 109.546C77.3696 111.797 76.6603 113.973 75.5507 115.949L60.4998 107.5L45.449 99.0509Z" fill="#BACBD8"/>
<path d="M65.7821 112.966V115.597H54.1352V113.351L59.6429 107.446C60.1964 106.83 60.633 106.288 60.9526 105.821C61.2723 105.345 61.5022 104.92 61.6426 104.546C61.7907 104.164 61.8647 103.802 61.8647 103.459C61.8647 102.944 61.779 102.504 61.6075 102.137C61.436 101.763 61.1826 101.475 60.8474 101.272C60.52 101.069 60.1146 100.968 59.6312 100.968C59.1167 100.968 58.6724 101.093 58.2982 101.342C57.9318 101.592 57.6511 101.938 57.4562 102.383C57.2691 102.827 57.1756 103.33 57.1756 103.891H53.7961C53.7961 102.878 54.0377 101.95 54.5211 101.108C55.0044 100.258 55.6866 99.5841 56.5675 99.0851C57.4484 98.5784 58.4931 98.3251 59.7014 98.3251C60.8942 98.3251 61.8998 98.5199 62.7184 98.9097C63.5447 99.2917 64.1684 99.8452 64.5894 100.57C65.0181 101.287 65.2325 102.145 65.2325 103.143C65.2325 103.704 65.1429 104.254 64.9636 104.792C64.7843 105.322 64.527 105.852 64.1918 106.382C63.8644 106.904 63.4668 107.434 62.999 107.972C62.5313 108.51 62.0129 109.068 61.4438 109.645L58.4853 112.966H65.7821Z" fill="#839AAE"/>
<defs>
<filter id="filter0_b_1102_7680" x="-3.53154" y="37.8435" width="111.09" height="20.066" filterUnits="userSpaceOnUse" color-interpolation-filters="sRGB">
<feFlood flood-opacity="0" result="BackgroundImageFix"/>
<feGaussianBlur in="BackgroundImageFix" stdDeviation="2.35659"/>
<feComposite in2="SourceAlpha" operator="in" result="effect1_backgroundBlur_1102_7680"/>
<feBlend mode="normal" in="SourceGraphic" in2="effect1_backgroundBlur_1102_7680" result="shape"/>
</filter>
<filter id="filter1_f_1102_7680" x="99.2998" y="49.6494" width="9.4571" height="104.121" filterUnits="userSpaceOnUse" color-interpolation-filters="sRGB">
<feFlood flood-opacity="0" result="BackgroundImageFix"/>
<feBlend mode="normal" in="SourceGraphic" in2="BackgroundImageFix" result="shape"/>
<feGaussianBlur stdDeviation="1.18215" result="effect1_foregroundBlur_1102_7680"/>
</filter>
<filter id="filter2_f_1102_7680" x="215.15" y="83.9668" width="9.4571" height="69.8087" filterUnits="userSpaceOnUse" color-interpolation-filters="sRGB">
<feFlood flood-opacity="0" result="BackgroundImageFix"/>
<feBlend mode="normal" in="SourceGraphic" in2="BackgroundImageFix" result="shape"/>
<feGaussianBlur stdDeviation="1.18215" result="effect1_foregroundBlur_1102_7680"/>
</filter>
</defs>
</svg>
