<svg width="20" height="20" viewBox="0 0 20 20" fill="none" xmlns="http://www.w3.org/2000/svg">
<path d="M17.3167 9.4L13.0333 5.125C12.9946 5.08595 12.9485 5.05495 12.8977 5.0338C12.847 5.01264 12.7925 5.00175 12.7375 5.00175C12.6825 5.00175 12.628 5.01264 12.5773 5.0338C12.5265 5.05495 12.4804 5.08595 12.4417 5.125L11.85 5.71667C11.8112 5.75469 11.7804 5.80007 11.7593 5.85015C11.7383 5.90023 11.7274 5.95401 11.7274 6.00833C11.7274 6.06266 11.7383 6.11644 11.7593 6.16652C11.7804 6.2166 11.8112 6.26198 11.85 6.3L14.725 9.16667H6.25C6.13949 9.16667 6.03351 9.21057 5.95537 9.2887C5.87723 9.36685 5.83333 9.47283 5.83333 9.58333V10.4167C5.83333 10.5272 5.87723 10.6332 5.95537 10.7113C6.03351 10.7894 6.13949 10.8333 6.25 10.8333H14.725L11.85 13.7C11.8109 13.7387 11.7799 13.7848 11.7588 13.8356C11.7376 13.8864 11.7268 13.9408 11.7268 13.9958C11.7268 14.0508 11.7376 14.1053 11.7588 14.1561C11.7799 14.2068 11.8109 14.2529 11.85 14.2917L12.4417 14.875C12.4804 14.9141 12.5265 14.9451 12.5773 14.9662C12.628 14.9874 12.6825 14.9983 12.7375 14.9983C12.7925 14.9983 12.847 14.9874 12.8977 14.9662C12.9485 14.9451 12.9946 14.9141 13.0333 14.875L17.3167 10.6C17.4339 10.4829 17.4999 10.324 17.5 10.1583V9.84167C17.4981 9.67632 17.4324 9.5181 17.3167 9.4ZM8.75 15.8333H4.16667V4.16667H8.75C8.86051 4.16667 8.96649 4.12277 9.04463 4.04463C9.12277 3.96649 9.16667 3.86051 9.16667 3.75V2.91667C9.16667 2.80616 9.12277 2.70018 9.04463 2.62204C8.96649 2.5439 8.86051 2.5 8.75 2.5H4.16667C3.72464 2.5 3.30072 2.67559 2.98816 2.98816C2.67559 3.30072 2.5 3.72464 2.5 4.16667V15.8333C2.5 16.2754 2.67559 16.6993 2.98816 17.0118C3.30072 17.3244 3.72464 17.5 4.16667 17.5H8.75C8.86051 17.5 8.96649 17.4561 9.04463 17.378C9.12277 17.2998 9.16667 17.1938 9.16667 17.0833V16.25C9.16667 16.1395 9.12277 16.0335 9.04463 15.9554C8.96649 15.8772 8.86051 15.8333 8.75 15.8333Z" fill="#8F95B2"/>
</svg>
