<svg width="24" height="24" viewBox="0 0 24 24" fill="none" xmlns="http://www.w3.org/2000/svg">
<path d="M15 16C16.0609 16 17.0783 15.5786 17.8284 14.8284C18.5786 14.0783 19 13.0609 19 12V6C19 4.93913 18.5786 3.92172 17.8284 3.17157C17.0783 2.42143 16.0609 2 15 2H5C3.93913 2 2.92172 2.42143 2.17157 3.17157C1.42143 3.92172 1 4.93913 1 6V18.5C1 18.6326 1.05268 18.7598 1.14645 18.8536C1.24021 18.9473 1.36739 19 1.5 19C1.5654 18.9996 1.63006 18.9862 1.69017 18.9604C1.75028 18.9346 1.80462 18.8971 1.85 18.85L3.85 16.85C4.13434 16.5732 4.47078 16.3555 4.83983 16.2096C5.20889 16.0637 5.60322 15.9924 6 16H15ZM3 15V6C3 5.46957 3.21071 4.96086 3.58579 4.58579C3.96086 4.21071 4.46957 4 5 4H15C15.5304 4 16.0391 4.21071 16.4142 4.58579C16.7893 4.96086 17 5.46957 17 6V12C17 12.5304 16.7893 13.0391 16.4142 13.4142C16.0391 13.7893 15.5304 14 15 14H6C4.91815 14 3.86548 14.3509 3 15ZM13.5 10H14.5C14.6326 10 14.7598 9.94732 14.8536 9.85356C14.9473 9.75979 15 9.63261 15 9.5V8.5C15 8.36739 14.9473 8.24022 14.8536 8.14645C14.7598 8.05268 14.6326 8 14.5 8H13.5C13.3674 8 13.2402 8.05268 13.1464 8.14645C13.0527 8.24022 13 8.36739 13 8.5V9.5C13 9.63261 13.0527 9.75979 13.1464 9.85356C13.2402 9.94732 13.3674 10 13.5 10ZM9.5 10H10.5C10.6326 10 10.7598 9.94732 10.8536 9.85356C10.9473 9.75979 11 9.63261 11 9.5V8.5C11 8.36739 10.9473 8.24022 10.8536 8.14645C10.7598 8.05268 10.6326 8 10.5 8H9.5C9.36739 8 9.24021 8.05268 9.14645 8.14645C9.05268 8.24022 9 8.36739 9 8.5V9.5C9 9.63261 9.05268 9.75979 9.14645 9.85356C9.24021 9.94732 9.36739 10 9.5 10ZM7 9.5V8.5C7 8.36739 6.94732 8.24022 6.85355 8.14645C6.75978 8.05268 6.63261 8 6.5 8H5.5C5.36739 8 5.24021 8.05268 5.14645 8.14645C5.05268 8.24022 5 8.36739 5 8.5V9.5C5 9.63261 5.05268 9.75979 5.14645 9.85356C5.24021 9.94732 5.36739 10 5.5 10H6.5C6.63261 10 6.75978 9.94732 6.85355 9.85356C6.94732 9.75979 7 9.63261 7 9.5ZM21 6V14C21 15.0609 20.5786 16.0783 19.8284 16.8284C19.0783 17.5786 18.0609 18 17 18H5C5 18.5304 5.21071 19.0391 5.58579 19.4142C5.96086 19.7893 6.46957 20 7 20H18C18.3955 19.999 18.7873 20.0763 19.1529 20.2273C19.5184 20.3783 19.8505 20.6002 20.13 20.88L22.13 22.88C22.1754 22.9271 22.2297 22.9646 22.2898 22.9904C22.3499 23.0162 22.4146 23.0296 22.48 23.03C22.6126 23.03 22.7398 22.9773 22.8336 22.8836C22.9273 22.7898 22.98 22.6626 22.98 22.53V8C22.98 7.47302 22.7721 6.96731 22.4013 6.59281C22.0305 6.21831 21.527 6.00527 21 6Z" fill="#8F95B2"/>
</svg>
