<svg width="20" height="20" viewBox="0 0 20 20" fill="none" xmlns="http://www.w3.org/2000/svg">
<path d="M1.81643 8.2166C1.74769 8.16655 1.69628 8.09629 1.66939 8.01561C1.6425 7.93494 1.64147 7.84789 1.66643 7.7666L1.7331 7.55827C1.75689 7.47789 1.80484 7.40679 1.87044 7.35461C1.93604 7.30243 2.0161 7.27171 2.09977 7.2666L7.42477 6.8416L9.46643 1.93327C9.49981 1.84947 9.55898 1.77847 9.63538 1.73053C9.71179 1.68259 9.80146 1.6602 9.89143 1.6666H10.1081C10.193 1.6648 10.2764 1.68952 10.3466 1.73731C10.4168 1.78511 10.4703 1.85361 10.4998 1.93327L12.5498 6.8416L17.8748 7.2666C17.9584 7.27171 18.0385 7.30243 18.1041 7.35461C18.1697 7.40679 18.2176 7.47789 18.2414 7.55827L18.3081 7.7666C18.3358 7.84539 18.3386 7.93077 18.3163 8.01124C18.2939 8.0917 18.2475 8.16337 18.1831 8.2166L14.1664 11.6666L15.3998 16.8416C15.4196 16.9226 15.4152 17.0077 15.3871 17.0863C15.3589 17.1648 15.3083 17.2333 15.2414 17.2833L14.9998 17.4166C14.9309 17.4632 14.8496 17.4881 14.7664 17.4881C14.6833 17.4881 14.602 17.4632 14.5331 17.4166L9.99977 14.6666L5.44143 17.4416C5.37253 17.4882 5.29127 17.5131 5.2081 17.5131C5.12493 17.5131 5.04367 17.4882 4.97477 17.4416L4.79143 17.3166C4.7246 17.2667 4.67395 17.1981 4.6458 17.1196C4.61764 17.0411 4.61323 16.956 4.6331 16.8749L5.8331 11.6666L1.81643 8.2166Z" fill="#8F95B2"/>
</svg>
