<svg width="20" height="20" viewBox="0 0 20 20" fill="none" xmlns="http://www.w3.org/2000/svg">
<path d="M6.66675 6.66683C6.66675 6.00756 6.86225 5.36309 7.22852 4.81493C7.59479 4.26677 8.11538 3.83952 8.72447 3.58723C9.33356 3.33494 10.0038 3.26893 10.6504 3.39755C11.297 3.52616 11.8909 3.84363 12.3571 4.30981C12.8233 4.77598 13.1407 5.36993 13.2694 6.01653C13.398 6.66313 13.332 7.33336 13.0797 7.94244C12.8274 8.55153 12.4001 9.07212 11.852 9.4384C11.3038 9.80467 10.6594 10.0002 10.0001 10.0002C9.11603 10.0002 8.26818 9.64897 7.64306 9.02385C7.01794 8.39873 6.66675 7.55089 6.66675 6.66683ZM16.5751 15.4585L15.3751 13.0502C15.1672 12.6338 14.8473 12.2837 14.4512 12.0393C14.0552 11.7949 13.5988 11.6659 13.1334 11.6668H6.86675C6.40137 11.6659 5.94498 11.7949 5.54895 12.0393C5.15291 12.2837 4.83295 12.6338 4.62508 13.0502L3.42508 15.4585C3.36116 15.5854 3.33072 15.7264 3.33667 15.8684C3.34261 16.0103 3.38474 16.1484 3.45905 16.2694C3.53336 16.3905 3.63739 16.4906 3.76125 16.5601C3.88511 16.6297 4.0247 16.6664 4.16675 16.6668H15.8334C15.9755 16.6664 16.1151 16.6297 16.2389 16.5601C16.3628 16.4906 16.4668 16.3905 16.5411 16.2694C16.6154 16.1484 16.6576 16.0103 16.6635 15.8684C16.6694 15.7264 16.639 15.5854 16.5751 15.4585Z" fill="#8F95B2"/>
</svg>
