<svg width="157" height="48" viewBox="0 0 157 48" fill="none" xmlns="http://www.w3.org/2000/svg">
<g id="Group 6">
<path id="Vector" d="M54.8461 17.2798L38.3428 24.3529C35.3093 25.6525 33.3422 28.6358 33.3422 31.9352V47.9982L37.5738 41.6503C38.5535 40.18 39.9411 39.0271 41.5644 38.3308L50.9107 34.3251C53.2968 33.3027 54.8436 30.9567 54.8436 28.3598V17.2798H54.8461Z" fill="#101010"/>
<path id="Vector_2" d="M9.44974 17.2798L25.9531 24.3529C28.9865 25.6525 30.9536 28.6358 30.9536 31.9352V47.9982L26.7221 41.6503C25.7423 40.18 24.3548 39.0271 22.7314 38.3308L13.3852 34.3251C10.9991 33.3027 9.45225 30.9567 9.45225 28.3598V17.2798H9.44974Z" fill="#101010"/>
<path id="Vector_3" d="M34.8352 0.489185C33.2118 -0.160661 31.4002 -0.160661 29.7744 0.489185L1.5851 11.7649V23.1912L0.570184 24.2061C-0.190061 24.9663 -0.190061 26.1983 0.570184 26.9585L2.33154 28.7199L4.09416 26.9585C4.85315 26.1983 4.85315 24.9663 4.09416 24.2061L3.07799 23.1912V12.3633L4.44417 12.909L29.7744 23.0394C31.4002 23.6892 33.2118 23.6892 34.8352 23.0394L63.0244 11.7636L34.8352 0.489185ZM40.4002 12.4863L29.8735 17.4705C29.1095 17.8318 28.2263 17.2748 28.2263 16.4292V6.45949C28.2263 5.61394 29.1082 5.05567 29.8735 5.41823L40.4002 10.4025C41.2809 10.8177 41.2809 12.0685 40.4002 12.4863Z" fill="#101010"/>
<path id="Vector_4" d="M94.7866 30.9065C94.3363 31.4435 93.8269 31.9189 93.2574 32.3317C92.1459 33.1371 90.8901 33.7292 89.4875 34.1081C88.0862 34.4869 86.6272 34.6764 85.1117 34.6764C83.5962 34.6764 82.1498 34.4882 80.7472 34.1081C79.3446 33.7292 78.0888 33.1371 76.9773 32.3317C75.8671 31.5263 74.9851 30.4875 74.3328 29.2154C73.6792 27.9446 73.3517 26.4203 73.3517 24.6426V12.8714H75.8871C77.3161 12.8714 78.474 14.0293 78.474 15.4582V24.6414C78.474 25.7215 78.7826 26.6248 79.4011 27.3524C80.0196 28.0801 80.8363 28.6283 81.8499 28.9996C82.8648 29.3685 83.9525 29.5541 85.1105 29.5541C86.2684 29.5541 87.3674 29.3747 88.3823 29.0184C89.3959 28.6609 90.2126 28.1202 90.8311 27.3976C91.4496 26.675 91.7582 25.7554 91.7582 24.6414V23.1824H91.7695C91.8184 21.1651 92.3604 19.3523 93.3966 17.7427C94.118 16.6249 95.025 15.6627 96.1177 14.8611C96.3272 14.7043 96.5442 14.5562 96.7688 14.4132V23.491C96.7688 23.693 96.7763 23.8912 96.7926 24.0831C96.9294 29.1339 94.7841 30.904 94.7841 30.904L94.7866 30.9065Z" fill="#101010"/>
<path id="Vector_5" d="M104.529 29.7775C105.4 29.7775 106.297 29.6332 107.219 29.3409C106.787 30.0371 106.381 30.6506 106.002 31.1913C104.222 33.7167 100.856 34.6036 98.081 33.2437C98.066 33.2362 98.0522 33.2287 98.0371 33.2211C96.7776 32.5976 95.6936 31.8261 94.7866 30.9078C94.7866 30.9078 96.9306 29.1377 96.7951 24.0869C96.8127 24.3115 96.8428 24.5298 96.8817 24.743C97.0297 25.5371 97.3296 26.2485 97.7762 26.8732C98.4461 27.8091 99.3657 28.528 100.532 29.0298C101.7 29.5303 103.034 29.78 104.531 29.78L104.529 29.7775Z" fill="#101010"/>
<path id="Vector_6" d="M157 16.364V34.1018H154.547C153.073 34.1018 151.879 32.9062 151.879 31.4322V22.3042L146.549 31.8022H141.623L136.293 22.3042V34.1018H130.958C129.151 34.1018 127.5 33.0718 126.706 31.446L125.756 29.504L123.548 24.9575L120.399 18.4628L117.238 24.9575H121.534L123.53 29.504H115.03C115.03 29.504 115.025 29.5152 115.015 29.5366C114.995 29.5855 114.948 29.6859 114.874 29.8264C114.87 29.8301 114.867 29.8377 114.864 29.8439C114.392 30.7108 112.832 33.0217 109.142 34.1018C107.942 34.4556 106.516 34.6764 104.83 34.6764C104.83 34.6764 107.206 33.6564 111.045 26.6512L116.829 15.0756C117.504 13.7257 118.884 12.8727 120.393 12.8727C121.902 12.8727 123.281 13.7245 123.957 15.0744L131.172 29.4939V16.364C131.172 15.3993 131.563 14.5261 132.194 13.8951C132.825 13.2641 133.698 12.8714 134.663 12.8714C135.955 12.8714 137.142 13.5852 137.747 14.7268L144.08 26.6549L150.424 14.7243C151.03 13.584 152.215 12.8714 153.506 12.8714H153.509C155.437 12.8714 157 14.4358 157 16.364Z" fill="#101010"/>
<path id="Vector_7" d="M96.7939 24.0856C96.7775 23.8937 96.77 23.6955 96.77 23.4935C96.7813 23.6955 96.7901 23.8937 96.7939 24.0856Z" fill="black"/>
<path id="Vector_8" d="M113.228 15.4833L111.004 20.0975C110.776 19.888 110.521 19.6572 110.305 19.4652C110.301 19.4615 110.298 19.4577 110.294 19.4552C110.162 19.3247 110.024 19.2005 109.882 19.0813C109.381 18.6598 108.821 18.2973 108.201 17.9987C107.096 17.463 105.872 17.1958 104.532 17.1958C103.034 17.1958 101.702 17.4454 100.532 17.9485C100.077 18.143 99.6592 18.3738 99.2791 18.6347C99.0307 18.8053 98.7986 18.991 98.5828 19.1917V13.4523C98.8111 13.3532 99.042 13.2603 99.2791 13.175C100.881 12.5891 102.661 12.2968 104.623 12.2968C106.303 12.2968 108.039 12.6732 109.83 13.4222C111.137 13.9691 112.27 14.6579 113.229 15.4846L113.228 15.4833Z" fill="#101010"/>
<path id="Vector_9" d="M113.911 16.078L111.66 20.7059C111.66 20.7059 111.361 20.4262 111.003 20.0975C110.774 19.888 110.52 19.6571 110.304 19.4652C110.3 19.4614 110.296 19.4577 110.293 19.4551C110.161 19.3247 110.023 19.2005 109.881 19.0813C109.619 18.5795 110.82 16.241 110.82 16.241L113.227 15.4821L113.909 16.078H113.911Z" fill="#101010"/>
</g>
</svg>
