<svg width="301" height="300" viewBox="0 0 301 300" fill="none" xmlns="http://www.w3.org/2000/svg">
<path fill-rule="evenodd" clip-rule="evenodd" d="M300 0H0V300H300V0ZM150 269C215.722 269 269 215.722 269 150C269 84.2781 215.722 31 150 31C84.2781 31 31 84.2781 31 150C31 215.722 84.2781 269 150 269Z" fill="white"/>
<path fill-rule="evenodd" clip-rule="evenodd" d="M0 300H300.023V0L234.155 65.8634C255.684 87.3975 269 117.144 269 150C269 215.722 215.722 269 150 269C117.14 269 87.3914 255.682 65.8569 234.148L0 300Z" fill="#A70A00"/>
</svg>
