<svg width="122" height="38" viewBox="0 0 122 38" fill="none" xmlns="http://www.w3.org/2000/svg">
<path d="M42.6192 13.4262L29.795 18.9225C27.4378 19.9324 25.9092 22.2506 25.9092 24.8145V37.2966L29.1974 32.3638C29.9587 31.2213 31.0369 30.3254 32.2984 29.7843L39.5611 26.6716C41.4153 25.8771 42.6173 24.0541 42.6173 22.0362V13.4262H42.6192Z" fill="white"/>
<path d="M7.34326 13.4262L20.1675 18.9225C22.5247 19.9324 24.0533 22.2506 24.0533 24.8145V37.2966L20.7651 32.3638C20.0037 31.2213 18.9255 30.3254 17.6641 29.7843L10.4014 26.6716C8.54721 25.8771 7.34521 24.0541 7.34521 22.0362V13.4262H7.34326Z" fill="white"/>
<path d="M27.0694 0.378732C25.8079 -0.126244 24.4002 -0.126244 23.1368 0.378732L1.23173 9.14075V18.0198L0.443073 18.8084C-0.147691 19.3992 -0.147691 20.3565 0.443073 20.9473L1.81177 22.316L3.18145 20.9473C3.77124 20.3565 3.77124 19.3992 3.18145 18.8084L2.39181 18.0198V9.60576L3.45343 10.0298L23.1368 17.9018C24.4002 18.4068 25.8079 18.4068 27.0694 17.9018L48.9744 9.13978L27.0694 0.378732ZM31.3938 9.70129L23.2138 13.5744C22.6201 13.8552 21.9338 13.4223 21.9338 12.7653V5.01808C21.9338 4.36103 22.6191 3.92721 23.2138 4.20895L31.3938 8.08206C32.0782 8.40473 32.0782 9.37667 31.3938 9.70129Z" fill="white"/>
<path d="M73.6559 24.0151C73.306 24.4324 72.9102 24.8018 72.4676 25.1226C71.6039 25.7484 70.628 26.2085 69.5381 26.503C68.4492 26.7974 67.3155 26.9446 66.1378 26.9446C64.9602 26.9446 63.8362 26.7983 62.7463 26.503C61.6564 26.2085 60.6806 25.7484 59.8169 25.1226C58.9541 24.4967 58.2688 23.6895 57.7619 22.701C57.2539 21.7135 56.9995 20.529 56.9995 19.1477V10.0006H58.9697C60.0801 10.0006 60.9799 10.9004 60.9799 12.0107V19.1467C60.9799 19.986 61.2197 20.6879 61.7003 21.2533C62.1809 21.8188 62.8155 22.2448 63.6032 22.5333C64.3919 22.8199 65.2371 22.9642 66.1369 22.9642C67.0366 22.9642 67.8906 22.8248 68.6793 22.548C69.467 22.2701 70.1016 21.85 70.5822 21.2884C71.0628 20.7269 71.3026 20.0123 71.3026 19.1467V18.0129H71.3114C71.3494 16.4453 71.7706 15.0367 72.5758 13.7859C73.1363 12.9173 73.8412 12.1696 74.6903 11.5467C74.8531 11.4248 75.0217 11.3098 75.1962 11.1987V18.2527C75.1962 18.4097 75.2021 18.5637 75.2147 18.7129C75.321 22.6376 73.654 24.0132 73.654 24.0132L73.6559 24.0151Z" fill="white"/>
<path d="M81.2265 23.1378C81.9031 23.1378 82.6001 23.0257 83.3166 22.7985C82.9812 23.3396 82.6654 23.8163 82.371 24.2364C80.9877 26.1988 78.3721 26.888 76.2157 25.8313C76.204 25.8254 76.1933 25.8196 76.1816 25.8137C75.2029 25.3292 74.3606 24.7297 73.6558 24.0161C73.6558 24.0161 75.3218 22.6406 75.2165 18.7158C75.2302 18.8903 75.2536 19.0599 75.2838 19.2257C75.3988 19.8427 75.6318 20.3955 75.9788 20.881C76.4994 21.6082 77.214 22.1668 78.1206 22.5567C79.0282 22.9457 80.0645 23.1397 81.2275 23.1397L81.2265 23.1378Z" fill="white"/>
<path d="M122 12.7146V26.4981H120.094C118.949 26.4981 118.021 25.569 118.021 24.4236V17.3305L113.878 24.7112H110.051L105.909 17.3305V26.4981H101.764C100.359 26.4981 99.0761 25.6977 98.459 24.4343L97.7211 22.9252L96.0053 19.3923L93.5584 14.3455L91.1018 19.3923H94.4407L95.9917 22.9252H89.386C89.386 22.9252 89.3821 22.934 89.3743 22.9506C89.3587 22.9886 89.3227 23.0666 89.2652 23.1758C89.2622 23.1787 89.2593 23.1845 89.2574 23.1894C88.8908 23.863 87.6781 25.6587 84.811 26.4981C83.8781 26.773 82.7707 26.9446 81.4604 26.9446C81.4604 26.9446 83.3068 26.152 86.2899 20.7084L90.784 11.7134C91.3085 10.6644 92.3808 10.0015 93.5536 10.0015C94.7263 10.0015 95.7977 10.6635 96.3231 11.7124L101.93 22.9174V12.7146C101.93 11.9649 102.234 11.2864 102.724 10.796C103.214 10.3057 103.893 10.0006 104.643 10.0006C105.647 10.0006 106.569 10.5553 107.039 11.4424L111.96 20.7113L116.89 11.4404C117.361 10.5543 118.282 10.0006 119.285 10.0006H119.287C120.785 10.0006 122 11.2162 122 12.7146Z" fill="white"/>
<path d="M75.2158 18.7148C75.2031 18.5657 75.1973 18.4117 75.1973 18.2547C75.206 18.4117 75.2129 18.5657 75.2158 18.7148Z" fill="black"/>
<path d="M87.9864 12.0302L86.258 15.6158C86.0806 15.453 85.8827 15.2736 85.715 15.1244C85.7121 15.1215 85.7092 15.1186 85.7063 15.1166C85.6039 15.0153 85.4967 14.9188 85.3865 14.8261C84.9966 14.4986 84.5618 14.2169 84.0802 13.9848C83.2213 13.5686 82.2699 13.3609 81.2287 13.3609C80.0648 13.3609 79.0295 13.5549 78.1209 13.9458C77.767 14.0969 77.4424 14.2763 77.147 14.4791C76.954 14.6117 76.7736 14.7559 76.606 14.9119V10.452C76.7834 10.3749 76.9628 10.3028 77.147 10.2365C78.3919 9.78125 79.7752 9.55411 81.2999 9.55411C82.6052 9.55411 83.9544 9.84657 85.3456 10.4286C86.3614 10.8536 87.2417 11.3888 87.9874 12.0312L87.9864 12.0302Z" fill="white"/>
<path d="M88.5168 12.4923L86.7679 16.0886C86.7679 16.0886 86.5359 15.8712 86.2571 15.6158C86.0796 15.453 85.8817 15.2736 85.7141 15.1244C85.7111 15.1215 85.7082 15.1186 85.7053 15.1166C85.6029 15.0152 85.4957 14.9187 85.3855 14.8261C85.1818 14.4362 86.1147 12.619 86.1147 12.619L87.9855 12.0293L88.5158 12.4923H88.5168Z" fill="white"/>
</svg>
