<svg width="64" height="48" viewBox="0 0 64 48" fill="none" xmlns="http://www.w3.org/2000/svg">
<path d="M54.8461 17.278L38.3428 24.3511C35.3093 25.6507 33.3422 28.634 33.3422 31.9334V47.9964L37.5738 41.6485C38.5535 40.1782 39.9411 39.0253 41.5644 38.329L50.9107 34.3233C53.2968 33.3009 54.8436 30.9549 54.8436 28.358V17.278H54.8461Z" fill="#019D44"/>
<path d="M9.44977 17.278L25.9531 24.3511C28.9865 25.6507 30.9536 28.634 30.9536 31.9334V47.9964L26.7221 41.6485C25.7423 40.1782 24.3548 39.0253 22.7314 38.329L13.3852 34.3233C10.9991 33.3009 9.45228 30.9549 9.45228 28.358V17.278H9.44977Z" fill="#019D44"/>
<path d="M34.8352 0.487384C33.2118 -0.162462 31.4002 -0.162462 29.7744 0.487384L1.5851 11.7631V23.1894L0.570184 24.2043C-0.190061 24.9645 -0.190061 26.1965 0.570184 26.9567L2.33154 28.7181L4.09416 26.9567C4.85315 26.1965 4.85315 24.9645 4.09416 24.2043L3.07799 23.1894V12.3615L4.44417 12.9072L29.7744 23.0376C31.4002 23.6874 33.2118 23.6874 34.8352 23.0376L63.0244 11.7618L34.8352 0.487384ZM40.4002 12.4845L29.8735 17.4687C29.1095 17.83 28.2263 17.273 28.2263 16.4274V6.45769C28.2263 5.61214 29.1082 5.05387 29.8735 5.41643L40.4002 10.4007C41.2809 10.8159 41.2809 12.0667 40.4002 12.4845Z" fill="#D72831"/>
</svg>
