<svg width="64" height="48" viewBox="0 0 64 48" fill="none" xmlns="http://www.w3.org/2000/svg">
<path d="M54.8461 17.2798L38.3428 24.3529C35.3093 25.6525 33.3422 28.6358 33.3422 31.9352V47.9982L37.5738 41.6503C38.5535 40.18 39.9411 39.0271 41.5644 38.3308L50.9107 34.3251C53.2968 33.3027 54.8436 30.9567 54.8436 28.3598V17.2798H54.8461Z" fill="#101010"/>
<path d="M9.44974 17.2798L25.9531 24.3529C28.9865 25.6525 30.9536 28.6358 30.9536 31.9352V47.9982L26.7221 41.6503C25.7423 40.18 24.3548 39.0271 22.7314 38.3308L13.3852 34.3251C10.9991 33.3027 9.45225 30.9567 9.45225 28.3598V17.2798H9.44974Z" fill="#101010"/>
<path d="M34.8352 0.489185C33.2118 -0.160661 31.4002 -0.160661 29.7744 0.489185L1.5851 11.7649V23.1912L0.570184 24.2061C-0.190061 24.9663 -0.190061 26.1983 0.570184 26.9585L2.33154 28.7199L4.09416 26.9585C4.85315 26.1983 4.85315 24.9663 4.09416 24.2061L3.07799 23.1912V12.3633L4.44417 12.909L29.7744 23.0394C31.4002 23.6892 33.2118 23.6892 34.8352 23.0394L63.0244 11.7636L34.8352 0.489185ZM40.4002 12.4863L29.8735 17.4705C29.1095 17.8318 28.2263 17.2748 28.2263 16.4292V6.45949C28.2263 5.61394 29.1082 5.05567 29.8735 5.41823L40.4002 10.4025C41.2809 10.8177 41.2809 12.0685 40.4002 12.4863Z" fill="#101010"/>
</svg>
