<svg width="49" height="38" viewBox="0 0 49 38" fill="none" xmlns="http://www.w3.org/2000/svg">
<path d="M42.6192 13.4262L29.795 18.9225C27.4378 19.9324 25.9092 22.2506 25.9092 24.8145V37.2966L29.1974 32.3638C29.9587 31.2213 31.0369 30.3254 32.2984 29.7843L39.5611 26.6716C41.4153 25.8771 42.6173 24.0541 42.6173 22.0362V13.4262H42.6192Z" fill="white"/>
<path d="M7.34326 13.4262L20.1675 18.9225C22.5247 19.9324 24.0533 22.2506 24.0533 24.8145V37.2966L20.7651 32.3638C20.0037 31.2213 18.9255 30.3254 17.6641 29.7843L10.4014 26.6716C8.54721 25.8771 7.34521 24.0541 7.34521 22.0362V13.4262H7.34326Z" fill="white"/>
<path d="M27.0694 0.378732C25.8079 -0.126244 24.4002 -0.126244 23.1368 0.378732L1.23173 9.14075V18.0198L0.443073 18.8084C-0.147691 19.3992 -0.147691 20.3565 0.443073 20.9473L1.81177 22.316L3.18145 20.9473C3.77124 20.3565 3.77124 19.3992 3.18145 18.8084L2.39181 18.0198V9.60576L3.45343 10.0298L23.1368 17.9018C24.4002 18.4068 25.8079 18.4068 27.0694 17.9018L48.9744 9.13978L27.0694 0.378732ZM31.3938 9.70129L23.2138 13.5744C22.6201 13.8552 21.9338 13.4223 21.9338 12.7653V5.01808C21.9338 4.36103 22.6191 3.92721 23.2138 4.20895L31.3938 8.08206C32.0782 8.40473 32.0782 9.37667 31.3938 9.70129Z" fill="white"/>
</svg>
